<svg width="1180" height="610" viewBox="0 0 1180 610" fill="none" xmlns="http://www.w3.org/2000/svg"
  xmlns:xlink="http://www.w3.org/1999/xlink" role="img" aria-label="Angelika Spekter profile banner">
  <title>Anzhelika Spekter — Technical PM Profile</title>
  <defs>
    <linearGradient id="bgGrad" x1="0%" y1="0%" x2="100%" y2="100%">
      <stop offset="0%" stop-color="#080b13" />
      <stop offset="45%" stop-color="#0d1220" />
      <stop offset="75%" stop-color="#131a2c" />
      <stop offset="100%" stop-color="#0a0e18" />
      <animate attributeName="x1" values="0%;20%;0%" dur="18s" repeatCount="indefinite" />
      <animate attributeName="y2" values="100%;80%;100%" dur="18s" repeatCount="indefinite" />
    </linearGradient>
    <radialGradient id="glowA" cx="50%" cy="50%" r="50%">
      <stop offset="0%" stop-color="#7c3aed" stop-opacity="0.35" />
      <stop offset="100%" stop-color="#7c3aed" stop-opacity="0" />
    </radialGradient>
    <radialGradient id="glowB" cx="50%" cy="50%" r="50%">
      <stop offset="0%" stop-color="#0891b2" stop-opacity="0.30" />
      <stop offset="100%" stop-color="#0891b2" stop-opacity="0" />
    </radialGradient>
    <radialGradient id="glowC" cx="50%" cy="50%" r="50%">
      <stop offset="0%" stop-color="#db2777" stop-opacity="0.25" />
      <stop offset="100%" stop-color="#db2777" stop-opacity="0" />
    </radialGradient>
    <linearGradient id="asciiGrad" x1="0%" y1="0%" x2="100%" y2="100%">
      <stop offset="0%" stop-color="#a78bfa">
        <animate attributeName="stop-color" values="#a78bfa;#22d3ee;#f472b6;#a78bfa" dur="8s"
          repeatCount="indefinite" />
      </stop>
      <stop offset="50%" stop-color="#22d3ee">
        <animate attributeName="stop-color" values="#22d3ee;#f472b6;#a78bfa;#22d3ee" dur="8s"
          repeatCount="indefinite" />
      </stop>
      <stop offset="100%" stop-color="#f472b6">
        <animate attributeName="stop-color" values="#f472b6;#a78bfa;#22d3ee;#f472b6" dur="8s"
          repeatCount="indefinite" />
      </stop>
    </linearGradient>
    <linearGradient id="nameGrad" x1="0%" y1="0%" x2="100%" y2="0%">
      <stop offset="0%" stop-color="#a78bfa" />
      <stop offset="100%" stop-color="#22d3ee" />
    </linearGradient>
    <linearGradient id="borderShimmer" x1="0%" y1="0%" x2="100%" y2="100%">
      <stop offset="0%" stop-color="#7c3aed" stop-opacity="0.7" />
      <stop offset="35%" stop-color="#22d3ee" stop-opacity="0.7" />
      <stop offset="70%" stop-color="#ec4899" stop-opacity="0.7" />
      <stop offset="100%" stop-color="#7c3aed" stop-opacity="0.7" />
      <animateTransform attributeName="gradientTransform" type="rotate" from="0 0.5 0.5"
        to="360 0.5 0.5" dur="14s" repeatCount="indefinite" />
    </linearGradient>
    <linearGradient id="scanGrad" x1="0%" y1="0%" x2="0%" y2="100%">
      <stop offset="0%" stop-color="rgba(120,180,255,0.10)" stop-opacity="0" />
      <stop offset="50%" stop-color="rgba(120,180,255,0.10)" stop-opacity="1" />
      <stop offset="100%" stop-color="rgba(120,180,255,0.10)" stop-opacity="0" />
    </linearGradient>
    <filter id="softBlur" x="-50%" y="-50%" width="200%" height="200%">
      <feGaussianBlur stdDeviation="18" />
    </filter>
    <filter id="glassBlur" x="-20%" y="-20%" width="140%" height="140%">
      <feGaussianBlur stdDeviation="6" />
    </filter>
    <filter id="neonGlow" x="-60%" y="-60%" width="220%" height="220%">
      <feGaussianBlur stdDeviation="2.4" result="blur" />
      <feMerge>
        <feMergeNode in="blur" />
        <feMergeNode in="SourceGraphic" />
      </feMerge>
    </filter>
    <filter id="pillGlow" x="-60%" y="-60%" width="220%" height="220%">
      <feGaussianBlur stdDeviation="3.2" result="blur" />
      <feMerge>
        <feMergeNode in="blur" />
        <feMergeNode in="SourceGraphic" />
      </feMerge>
    </filter>
    <filter id="noiseFilter">
      <feTurbulence type="fractalNoise" baseFrequency="0.9" numOctaves="2" stitchTiles="stitch"
        result="noise" />
      <feColorMatrix in="noise" type="matrix"
        values="0 0 0 0 1  0 0 0 0 1  0 0 0 0 1  0 0 0 0.4 0" />
    </filter>
    <clipPath id="canvasClip">
      <rect x="0" y="0" width="1180" height="610" rx="28" />
    </clipPath>
    <clipPath id="leftClip">
      <rect x="24" y="24" width="424" height="562" rx="20" />
    </clipPath>
    <style>
      .mono { font-family: 'SFMono-Regular', 'Cascadia Code', Consolas, 'JetBrains Mono', monospace; }
      .sans { font-family: -apple-system, 'Segoe UI', Inter, Arial, sans-serif; }
      .pill { transition: transform 0.25s ease, filter 0.25s ease; transform-box: fill-box; transform-origin: center; cursor: pointer; }
      .pill:hover { transform: scale(1.08); filter: url(#pillGlow); }
      .icon { transition: transform 0.25s ease, filter 0.25s ease; transform-box: fill-box; transform-origin: center; cursor: pointer; }
      .icon:hover { transform: scale(1.15) translateY(-2px); filter: url(#neonGlow); }
      .icon:hover .icon-ring { stroke-opacity: 1; }
    </style>
    <linearGradient id="metalGrad" x1="0%" y1="0%" x2="100%" y2="100%">
      <stop offset="0%" stop-color="#ffffff" />
      <stop offset="35%" stop-color="#ffffff" />
      <stop offset="65%" stop-color="#e2e8f0" />
      <stop offset="100%" stop-color="#cbd5e1" />
    </linearGradient>
  </defs>
  <g clip-path="url(#canvasClip)">
    <rect x="0" y="0" width="1180" height="610" fill="url(#bgGrad)" />
    <rect x="0" y="0" width="1180" height="610" filter="url(#noiseFilter)" opacity="0.035" />
    <circle cx="150" cy="120" r="220" fill="url(#glowA)">
      <animateTransform attributeName="transform" type="translate" values="0,0; 30,40; -10,20; 0,0"
        dur="16s" repeatCount="indefinite" />
    </circle>
    <circle cx="1000" cy="480" r="260" fill="url(#glowB)">
      <animateTransform attributeName="transform" type="translate" values="0,0; -25,-30; 15,10; 0,0"
        dur="20s" repeatCount="indefinite" />
    </circle>
    <circle cx="700" cy="80" r="180" fill="url(#glowC)">
      <animateTransform attributeName="transform" type="translate" values="0,0; 20,25; -20,-10; 0,0"
        dur="13s" repeatCount="indefinite" />
    </circle>
    <g>
      <circle cx="389.2" cy="106.0" r="1.38" fill="#22d3ee" opacity="0.41">
        <animate attributeName="cy" values="106.0;92.0;106.0" dur="4.4s" begin="2.7s"
          repeatCount="indefinite" />
        <animate attributeName="opacity" values="0;0.41;0" dur="4.4s" begin="2.7s"
          repeatCount="indefinite" />
      </circle>
      <circle cx="86.1" cy="309.2" r="0.64" fill="#22d3ee" opacity="0.29">
        <animate attributeName="cy" values="309.2;295.2;309.2" dur="6.2s" begin="0.3s"
          repeatCount="indefinite" />
        <animate attributeName="opacity" values="0;0.29;0" dur="6.2s" begin="0.3s"
          repeatCount="indefinite" />
      </circle>
      <circle cx="504.0" cy="491.3" r="0.75" fill="#22d3ee" opacity="0.68">
        <animate attributeName="cy" values="491.3;477.3;491.3" dur="5.1s" begin="3.1s"
          repeatCount="indefinite" />
        <animate attributeName="opacity" values="0;0.68;0" dur="5.1s" begin="3.1s"
          repeatCount="indefinite" />
      </circle>
      <circle cx="677.9" cy="246.1" r="1.77" fill="#22d3ee" opacity="0.38">
        <animate attributeName="cy" values="246.1;232.1;246.1" dur="4.2s" begin="4.3s"
          repeatCount="indefinite" />
        <animate attributeName="opacity" values="0;0.38;0" dur="4.2s" begin="4.3s"
          repeatCount="indefinite" />
      </circle>
      <circle cx="184.5" cy="87.1" r="0.97" fill="#22d3ee" opacity="0.51">
        <animate attributeName="cy" values="87.1;73.1;87.1" dur="8.1s" begin="0.9s"
          repeatCount="indefinite" />
        <animate attributeName="opacity" values="0;0.51;0" dur="8.1s" begin="0.9s"
          repeatCount="indefinite" />
      </circle>
      <circle cx="748.4" cy="232.3" r="1.26" fill="#22d3ee" opacity="0.34">
        <animate attributeName="cy" values="232.3;218.3;232.3" dur="4.3s" begin="0.3s"
          repeatCount="indefinite" />
        <animate attributeName="opacity" values="0;0.34;0" dur="4.3s" begin="0.3s"
          repeatCount="indefinite" />
      </circle>
      <circle cx="795.7" cy="263.7" r="0.98" fill="#22d3ee" opacity="0.38">
        <animate attributeName="cy" values="263.7;249.7;263.7" dur="6.9s" begin="2.3s"
          repeatCount="indefinite" />
        <animate attributeName="opacity" values="0;0.38;0" dur="6.9s" begin="2.3s"
          repeatCount="indefinite" />
      </circle>
      <circle cx="925.6" cy="418.4" r="0.89" fill="#22d3ee" opacity="0.64">
        <animate attributeName="cy" values="418.4;404.4;418.4" dur="6.9s" begin="2.6s"
          repeatCount="indefinite" />
        <animate attributeName="opacity" values="0;0.64;0" dur="6.9s" begin="2.6s"
          repeatCount="indefinite" />
      </circle>
      <circle cx="851.6" cy="184.1" r="1.78" fill="#22d3ee" opacity="0.59">
        <animate attributeName="cy" values="184.1;170.1;184.1" dur="4.6s" begin="2.1s"
          repeatCount="indefinite" />
        <animate attributeName="opacity" values="0;0.59;0" dur="4.6s" begin="2.1s"
          repeatCount="indefinite" />
      </circle>
      <circle cx="193.3" cy="298.7" r="0.65" fill="#22d3ee" opacity="0.51">
        <animate attributeName="cy" values="298.7;284.7;298.7" dur="7.3s" begin="3.8s"
          repeatCount="indefinite" />
        <animate attributeName="opacity" values="0;0.51;0" dur="7.3s" begin="3.8s"
          repeatCount="indefinite" />
      </circle>
      <circle cx="1018.0" cy="198.8" r="1.43" fill="#22d3ee" opacity="0.46">
        <animate attributeName="cy" values="198.8;184.8;198.8" dur="7.0s" begin="2.9s"
          repeatCount="indefinite" />
        <animate attributeName="opacity" values="0;0.46;0" dur="7.0s" begin="2.9s"
          repeatCount="indefinite" />
      </circle>
      <circle cx="977.6" cy="558.5" r="1.17" fill="#22d3ee" opacity="0.57">
        <animate attributeName="cy" values="558.5;544.5;558.5" dur="7.3s" begin="0.3s"
          repeatCount="indefinite" />
        <animate attributeName="opacity" values="0;0.57;0" dur="7.3s" begin="0.3s"
          repeatCount="indefinite" />
      </circle>
      <circle cx="757.7" cy="586.1" r="1.59" fill="#22d3ee" opacity="0.55">
        <animate attributeName="cy" values="586.1;572.1;586.1" dur="5.4s" begin="1.9s"
          repeatCount="indefinite" />
        <animate attributeName="opacity" values="0;0.55;0" dur="5.4s" begin="1.9s"
          repeatCount="indefinite" />
      </circle>
      <circle cx="45.7" cy="283.2" r="0.80" fill="#22d3ee" opacity="0.60">
        <animate attributeName="cy" values="283.2;269.2;283.2" dur="4.6s" begin="0.3s"
          repeatCount="indefinite" />
        <animate attributeName="opacity" values="0;0.60;0" dur="4.6s" begin="0.3s"
          repeatCount="indefinite" />
      </circle>
      <circle cx="167.4" cy="161.1" r="1.07" fill="#22d3ee" opacity="0.45">
        <animate attributeName="cy" values="161.1;147.1;161.1" dur="8.4s" begin="0.4s"
          repeatCount="indefinite" />
        <animate attributeName="opacity" values="0;0.45;0" dur="8.4s" begin="0.4s"
          repeatCount="indefinite" />
      </circle>
      <circle cx="646.4" cy="523.5" r="1.58" fill="#22d3ee" opacity="0.44">
        <animate attributeName="cy" values="523.5;509.5;523.5" dur="8.3s" begin="1.4s"
          repeatCount="indefinite" />
        <animate attributeName="opacity" values="0;0.44;0" dur="8.3s" begin="1.4s"
          repeatCount="indefinite" />
      </circle>
      <circle cx="429.0" cy="524.0" r="1.75" fill="#22d3ee" opacity="0.35">
        <animate attributeName="cy" values="524.0;510.0;524.0" dur="4.8s" begin="0.9s"
          repeatCount="indefinite" />
        <animate attributeName="opacity" values="0;0.35;0" dur="4.8s" begin="0.9s"
          repeatCount="indefinite" />
      </circle>
      <circle cx="286.0" cy="296.4" r="1.31" fill="#22d3ee" opacity="0.44">
        <animate attributeName="cy" values="296.4;282.4;296.4" dur="5.3s" begin="0.0s"
          repeatCount="indefinite" />
        <animate attributeName="opacity" values="0;0.44;0" dur="5.3s" begin="0.0s"
          repeatCount="indefinite" />
      </circle>
      <circle cx="440.9" cy="342.8" r="1.74" fill="#22d3ee" opacity="0.53">
        <animate attributeName="cy" values="342.8;328.8;342.8" dur="7.5s" begin="2.6s"
          repeatCount="indefinite" />
        <animate attributeName="opacity" values="0;0.53;0" dur="7.5s" begin="2.6s"
          repeatCount="indefinite" />
      </circle>
      <circle cx="790.9" cy="50.8" r="1.68" fill="#22d3ee" opacity="0.61">
        <animate attributeName="cy" values="50.8;36.8;50.8" dur="7.9s" begin="4.4s"
          repeatCount="indefinite" />
        <animate attributeName="opacity" values="0;0.61;0" dur="7.9s" begin="4.4s"
          repeatCount="indefinite" />
      </circle>
      <circle cx="467.3" cy="247.4" r="0.72" fill="#22d3ee" opacity="0.28">
        <animate attributeName="cy" values="247.4;233.4;247.4" dur="7.2s" begin="0.3s"
          repeatCount="indefinite" />
        <animate attributeName="opacity" values="0;0.28;0" dur="7.2s" begin="0.3s"
          repeatCount="indefinite" />
      </circle>
      <circle cx="258.0" cy="112.5" r="1.01" fill="#22d3ee" opacity="0.32">
        <animate attributeName="cy" values="112.5;98.5;112.5" dur="4.3s" begin="0.0s"
          repeatCount="indefinite" />
        <animate attributeName="opacity" values="0;0.32;0" dur="4.3s" begin="0.0s"
          repeatCount="indefinite" />
      </circle>
      <circle cx="135.7" cy="227.3" r="0.63" fill="#22d3ee" opacity="0.32">
        <animate attributeName="cy" values="227.3;213.3;227.3" dur="8.4s" begin="3.1s"
          repeatCount="indefinite" />
        <animate attributeName="opacity" values="0;0.32;0" dur="8.4s" begin="3.1s"
          repeatCount="indefinite" />
      </circle>
      <circle cx="307.6" cy="218.0" r="1.04" fill="#22d3ee" opacity="0.70">
        <animate attributeName="cy" values="218.0;204.0;218.0" dur="4.6s" begin="4.2s"
          repeatCount="indefinite" />
        <animate attributeName="opacity" values="0;0.70;0" dur="4.6s" begin="4.2s"
          repeatCount="indefinite" />
      </circle>
      <circle cx="551.2" cy="295.8" r="0.70" fill="#22d3ee" opacity="0.37">
        <animate attributeName="cy" values="295.8;281.8;295.8" dur="4.5s" begin="1.7s"
          repeatCount="indefinite" />
        <animate attributeName="opacity" values="0;0.37;0" dur="4.5s" begin="1.7s"
          repeatCount="indefinite" />
      </circle>
      <circle cx="964.9" cy="112.0" r="0.63" fill="#22d3ee" opacity="0.32">
        <animate attributeName="cy" values="112.0;98.0;112.0" dur="8.8s" begin="2.6s"
          repeatCount="indefinite" />
        <animate attributeName="opacity" values="0;0.32;0" dur="8.8s" begin="2.6s"
          repeatCount="indefinite" />
      </circle>
    </g>
    <rect x="0" y="-40" width="1180" height="40" fill="url(#scanGrad)">
      <animate attributeName="y" values="-40;610" dur="6s" repeatCount="indefinite" />
    </rect>
  </g>
  <rect x="1.5" y="1.5" width="1177" height="607" rx="27" fill="none" stroke="url(#borderShimmer)"
    stroke-width="1.6" />
  <g>
    <rect x="24" y="24" width="424" height="562" rx="20" fill="rgba(255,255,255,0.035)"
      stroke="rgba(255,255,255,0.10)" stroke-width="1" />
    <g clip-path="url(#leftClip)">
      <rect x="-450" y="24" width="200" height="562" fill="rgba(255,255,255,0.05)"
        transform="skewX(-18)">
        <animate attributeName="x" values="-500;700" dur="7s" begin="1s" repeatCount="indefinite" />
      </rect>
    </g>
    <text x="46" y="56" class="mono" font-size="11" fill="#5b6272" letter-spacing="2">
      ~/portrait.ascii</text>
    <line x1="46" y1="66" x2="426" y2="66" stroke="rgba(255,255,255,0.10)" stroke-width="1" />
    <g class="mono" font-size="10.6" fill="url(#asciiGrad)" clip-path="url(#leftClip)">
      <animateTransform attributeName="transform" type="translate" values="0,0; 0,-4; 0,0" dur="6s"
        repeatCount="indefinite" />
      <text x="46" y="92.0" xml:space="preserve" opacity="0">.   . 0        .                 0 1              <animate attributeName="opacity" values="0;1" dur="0.45s" begin="0.0s" fill="freeze"/></text>
      <text x="46" y="105.4" xml:space="preserve" opacity="0">   .            1          0    0       01    00  <animate attributeName="opacity" values="0;1" dur="0.45s" begin="0.1s" fill="freeze"/></text>
      <text x="46" y="118.8" xml:space="preserve" opacity="0"> .        1  00       :::::::           1       . <animate attributeName="opacity" values="0;1" dur="0.45s" begin="0.2s" fill="freeze"/></text>
      <text x="46" y="132.2" xml:space="preserve" opacity="0">1   0 . . .         :---===---:   1   0 1  .  1   <animate attributeName="opacity" values="0;1" dur="0.45s" begin="0.3s" fill="freeze"/></text>
      <text x="46" y="145.6" xml:space="preserve" opacity="0">.                  :-===+++===-:      1           <animate attributeName="opacity" values="0;1" dur="0.45s" begin="0.4s" fill="freeze"/></text>
      <text x="46" y="159.0" xml:space="preserve" opacity="0">                  :-==++***++==-: 1            1 1<animate attributeName="opacity" values="0;1" dur="0.45s" begin="0.5s" fill="freeze"/></text>
      <text x="46" y="172.4" xml:space="preserve" opacity="0">     1 .0.       :-=++**###**++=-:1       1 .     <animate attributeName="opacity" values="0;1" dur="0.45s" begin="0.6s" fill="freeze"/></text>
      <text x="46" y="185.8" xml:space="preserve" opacity="0">                .:-=+*##%%%##*+=-:               .<animate attributeName="opacity" values="0;1" dur="0.45s" begin="0.7s" fill="freeze"/></text>
      <text x="46" y="199.2" xml:space="preserve" opacity="0">1    .  0       :-=+*##%%%%%##*+=-: 0   0 .       <animate attributeName="opacity" values="0;1" dur="0.45s" begin="0.8s" fill="freeze"/></text>
      <text x="46" y="212.6" xml:space="preserve" opacity="0">.       .  1    :-=+*#%%@@@%%#*+=-:      0        <animate attributeName="opacity" values="0;1" dur="0.45s" begin="0.9s" fill="freeze"/></text>
      <text x="46" y="226.0" xml:space="preserve" opacity="0">                :-=+*#%@@@@@%#*+=-:          1   .<animate attributeName="opacity" values="0;1" dur="0.45s" begin="1.0s" fill="freeze"/></text>
      <text x="46" y="239.4" xml:space="preserve" opacity="0">            0   :-=+*#%%@@@%%#*+=-:  ..          1<animate attributeName="opacity" values="0;1" dur="0.45s" begin="1.1s" fill="freeze"/></text>
      <text x="46" y="252.8" xml:space="preserve" opacity="0">      . 0       :-=+*##%@@@%##*+=-: 11            <animate attributeName="opacity" values="0;1" dur="0.45s" begin="1.2s" fill="freeze"/></text>
      <text x="46" y="266.2" xml:space="preserve" opacity="0">  0    1 1      :-=++*##%%%##*++=-:     1    1   .<animate attributeName="opacity" values="0;1" dur="0.45s" begin="1.3s" fill="freeze"/></text>
      <text x="46" y="279.6" xml:space="preserve" opacity="0">  0        .  1  :-=+**#####**+=-:.      01       <animate attributeName="opacity" values="0;1" dur="0.45s" begin="1.4s" fill="freeze"/></text>
      <text x="46" y="293.0" xml:space="preserve" opacity="0">         1   1   ::-=++*****++=-::     .   .  .   <animate attributeName="opacity" values="0;1" dur="0.45s" begin="1.5s" fill="freeze"/></text>
      <text x="46" y="306.4" xml:space="preserve" opacity="0"> 0 0      1.      :--==+++++==--:   1  .          <animate attributeName="opacity" values="0;1" dur="0.45s" begin="1.6s" fill="freeze"/></text>
      <text x="46" y="319.8" xml:space="preserve" opacity="0">           1  1.   ::--=====--::     0  .    .    <animate attributeName="opacity" values="0;1" dur="0.45s" begin="1.7s" fill="freeze"/></text>
      <text x="46" y="333.2" xml:space="preserve" opacity="0"> 0   1     1   0     ::-----::  1                 <animate attributeName="opacity" values="0;1" dur="0.45s" begin="1.8s" fill="freeze"/></text>
      <text x="46" y="346.6" xml:space="preserve" opacity="0">  .1 .     .1  .:--=++*#:::#*++=--:.       .     1<animate attributeName="opacity" values="0;1" dur="0.45s" begin="1.9s" fill="freeze"/></text>
      <text x="46" y="360.0" xml:space="preserve" opacity="0">1 0   1     .. ::-==+**#%@%#**+==-::           0 1<animate attributeName="opacity" values="0;1" dur="0.45s" begin="2.0s" fill="freeze"/></text>
      <text x="46" y="373.4" xml:space="preserve" opacity="0">  .   1   .1 0::--==+**#%@%#**+==--::             <animate attributeName="opacity" values="0;1" dur="0.45s" begin="2.1s" fill="freeze"/></text>
      <text x="46" y="386.8" xml:space="preserve" opacity="0">1            ::--==++*##%@%##*++==--::   1    .   <animate attributeName="opacity" values="0;1" dur="0.45s" begin="2.2s" fill="freeze"/></text>
      <text x="46" y="400.2" xml:space="preserve" opacity="0">         .1 ::---==++*##%@%##*++==---::     0     <animate attributeName="opacity" values="0;1" dur="0.45s" begin="2.3s" fill="freeze"/></text>
      <text x="46" y="413.6" xml:space="preserve" opacity="0">   .       :::--==++**##%@%##**++==--:::  .  .  .0<animate attributeName="opacity" values="0;1" dur="0.45s" begin="2.4s" fill="freeze"/></text>
      <text x="46" y="427.0" xml:space="preserve" opacity="0">        .1:::--===++**#%%@%%#**++===--:::        1<animate attributeName="opacity" values="0;1" dur="0.45s" begin="2.5s" fill="freeze"/></text>
      <text x="46" y="440.4" xml:space="preserve" opacity="0">   1  .  .::---==+++**#%%@%%#**+++==---::.        <animate attributeName="opacity" values="0;1" dur="0.45s" begin="2.6s" fill="freeze"/></text>
      <text x="46" y="453.8" xml:space="preserve" opacity="0">         :::--===++**##%%@%%##**++===--:::        <animate attributeName="opacity" values="0;1" dur="0.45s" begin="2.7s" fill="freeze"/></text>
      <text x="46" y="467.2" xml:space="preserve" opacity="0"> 0      :::---==+++**##%%@%%##**+++==---::: .  0  <animate attributeName="opacity" values="0;1" dur="0.45s" begin="2.8s" fill="freeze"/></text>
      <text x="46" y="480.6" xml:space="preserve" opacity="0">       :::---===+++**##%%@%%##**+++===---:::    0 <animate attributeName="opacity" values="0;1" dur="0.45s" begin="2.9s" fill="freeze"/></text>
      <text x="46" y="494.0" xml:space="preserve" opacity="0">      :::----===++***##%%@%%##***++===----:::1    <animate attributeName="opacity" values="0;1" dur="0.45s" begin="3.0s" fill="freeze"/></text>
      <text x="46" y="507.4" xml:space="preserve" opacity="0">0    ::::---===+++***##%@@@%##***+++===---:::: 1  <animate attributeName="opacity" values="0;1" dur="0.45s" begin="3.1s" fill="freeze"/></text>
      <text x="46" y="520.8" xml:space="preserve" opacity="0">    ::::---====+++**###%@@@%###**+++====---::::   <animate attributeName="opacity" values="0;1" dur="0.45s" begin="3.2s" fill="freeze"/></text>
      <text x="46" y="534.2" xml:space="preserve" opacity="0">   .:::----===+++***##%%@@@%%##***+++===----:::.  <animate attributeName="opacity" values="0;1" dur="0.45s" begin="3.3s" fill="freeze"/></text>
    </g>
    <rect x="46" y="524.2" width="7" height="12" fill="#22d3ee" opacity="0">
      <animate attributeName="opacity" values="0;1;1;0;0" keyTimes="0;0.05;0.5;0.55;1" dur="1.1s"
        begin="3.4s" repeatCount="indefinite" />
    </rect>
  </g>
  <g>
    <!-- Главная подложка окна терминала (эффект тёмного матового стекла) -->
    <rect x="468" y="24" width="688" height="562" rx="20" fill="rgba(13,16,23,0.85)" stroke="rgba(212,255,0,0.12)" stroke-width="1" />
    <!-- Шапка окна (панель с кнопками управления) -->
    <rect x="468" y="24" width="688" height="40" rx="20" fill="rgba(212,255,0,0.02)" />
    <rect x="468" y="44" width="688" height="20" fill="rgba(212,255,0,0.02)" />
    <!-- Три каноничные кнопки macOS (закрыть, свернуть, развернуть) -->
    <circle cx="494" cy="44" r="6" fill="#ff5f57" />
    <circle cx="514" cy="44" r="6" fill="#febc2e" />
    <circle cx="534" cy="44" r="6" fill="#28c840" />
    <!-- Заголовок вкладки терминала (приглушённый, чтобы не перебивать акценты) -->
    <text x="812.0" y="48" text-anchor="middle" class="mono" font-size="11.5" fill="#5b6272" letter-spacing="1.5">anzhelika — zsh</text>
    <!-- Разделительная линия между шапкой и рабочей зоной -->
    <line x1="468" y1="64" x2="1156" y2="64" stroke="rgba(212,255,0,0.12)" stroke-width="1" />
    <!-- Главное приветствие (Шрифт 400, Имя — жирный металлик градиент 600) -->
    <text x="504" y="102" class="mono sans" font-size="26" font-weight="400" fill="#f8fafc">Hi <tspan fill="#be185d">👋</tspan> I&#8217;m <tspan fill="url(#metalGrad)" font-weight="600">Anzhelika Spekter</tspan></text>

    <rect x="504" y="112" width="0" fill="none" />
    <g class="mono" font-size="17" fill="#d4ff00">
      <text x="504" y="140" fill="#5b6272" font-size="14">$ role:</text>
      <!-- 1. Technical Product Manager (0s - 4s) -->
      <text x="570" y="140" clip-path="url(#roleClip0)" opacity="0">Technical Product Manager <animate
          attributeName="opacity" values="0;1;1;0;0" keyTimes="0;0.05;0.9;0.95;1" dur="16s"
          begin="0s" repeatCount="indefinite" />
      </text>
      <!-- 2. Workflow Automation Expert (4s - 8s) -->
      <text x="570" y="140" clip-path="url(#roleClip1)" opacity="0">Workflow Automation Expert <animate
          attributeName="opacity" values="0;1;1;0;0" keyTimes="0;0.25;0.45;0.48;1" dur="16s"
          begin="0s" repeatCount="indefinite" />
      </text>
      <!-- 3. Product Infrastructure Lead (8s - 12s) -->
      <text x="570" y="140" clip-path="url(#roleClip2)" opacity="0">Product Infrastructure Lead <animate
          attributeName="opacity" values="0;1;1;0;0" keyTimes="0;0.50;0.70;0.73;1" dur="16s"
          begin="0s" repeatCount="indefinite" />
      </text>
      <!-- 4. AI Integrations Specialist (12s - 16s) -->
      <text x="570" y="140" clip-path="url(#roleClip3)" opacity="0">AI Integrations Specialist <animate
          attributeName="opacity" values="0;1;1;0;0" keyTimes="0;0.75;0.95;0.98;1" dur="16s"
          begin="0s" repeatCount="indefinite" />
      </text>
    </g>
    <clipPath id="roleClip0">
      <rect x="570" y="120" height="30" width="0">
        <animate attributeName="width" values="0;260;260;0;0" keyTimes="0;0.05;0.20;0.24;1"
          dur="16s" begin="0s" repeatCount="indefinite" />
      </rect>
    </clipPath>
    <clipPath id="roleClip1">
      <rect x="570" y="120" height="30" width="0">
        <animate attributeName="width" values="0;0;290;290;0;0" keyTimes="0;0.25;0.30;0.45;0.49;1"
          dur="16s" begin="0s" repeatCount="indefinite" />
      </rect>
    </clipPath>
    <clipPath id="roleClip2">
      <rect x="570" y="120" height="30" width="0">
        <animate attributeName="width" values="0;0;290;290;0;0" keyTimes="0;0.50;0.55;0.70;0.74;1"
          dur="16s" begin="0s" repeatCount="indefinite" />
      </rect>
    </clipPath>
    <clipPath id="roleClip3">
      <rect x="570" y="120" height="30" width="0">
        <animate attributeName="width" values="0;0;270;270;0;0" keyTimes="0;0.75;0.80;0.95;0.99;1"
          dur="16s" begin="0s" repeatCount="indefinite" />
      </rect>
    </clipPath>
    <line x1="504" y1="158" x2="1120" y2="158" stroke="rgba(255,255,255,0.08)" stroke-width="1" />
    <!-- 1. Location -->
    <g opacity="0" transform="translate(-14,0)">
      <animate attributeName="opacity" values="0;1" dur="0.5s" begin="1.0s" fill="freeze" />
      <animateTransform attributeName="transform" type="translate" values="-14,0;0,0" dur="0.5s"
        begin="1.0s" fill="freeze" />
      <text x="504" y="186" class="mono" font-size="13.5">
        <tspan fill="#5b6272">Location</tspan>
        <tspan fill="#5b6272">:</tspan>
        <tspan fill="#f8fafc">Kyiv, Ukraine</tspan>
      </text>
    </g>
    <!-- 2. Current Focus -->
    <g opacity="0" transform="translate(-14,0)">
      <animate attributeName="opacity" values="0;1" dur="0.5s" begin="1.35s" fill="freeze" />
      <animateTransform attributeName="transform" type="translate" values="-14,0;0,0" dur="0.5s"
        begin="1.35s" fill="freeze" />
      <text x="504" y="212" class="mono" font-size="13.5">
        <tspan fill="#5b6272">Current Focus</tspan>
        <tspan fill="#5b6272">:</tspan>
        <tspan fill="#f8fafc">AI Engineering · Agents · Automation · TG Mini Apps</tspan>
      </text>
    </g>
    <!-- 3. Portfolio -->
    <g opacity="0" transform="translate(-14,0)">
      <animate attributeName="opacity" values="0;1" dur="0.5s" begin="1.7s" fill="freeze" />
      <animateTransform attributeName="transform" type="translate" values="-14,0;0,0" dur="0.5s"
        begin="1.7s" fill="freeze" />
      <a xlink:href="https://t.me/+U7y9wJH6ZpAxZTEy" target="_blank"
        style="cursor: pointer; text-decoration: underline;">
        <text x="504" y="238" class="mono" font-size="13.5">
          <tspan fill="#5b6272">Portfolio</tspan>
          <tspan fill="#5b6272">:</tspan>
          <tspan fill="#f8fafc">Telegram Showcase</tspan>
        </text>
      </a>
    </g>
    <!-- 4. Email -->
    <g opacity="0" transform="translate(-14,0)">
      <animate attributeName="opacity" values="0;1" dur="0.5s" begin="2.05s" fill="freeze" />
      <animateTransform attributeName="transform" type="translate" values="-14,0;0,0" dur="0.5s"
        begin="2.05s" fill="freeze" />
      <a xlink:href="mailto:anzhelikaspekter@gmail.com"
        style="cursor: pointer; text-decoration: underline;">
        <text x="504" y="264" class="mono" font-size="13.5">
          <tspan fill="#5b6272">Email</tspan>
          <tspan fill="#5b6272">:</tspan>
          <tspan fill="#f8fafc">anzhelikaspekter@gmail.com</tspan>
        </text>
      </a>
    </g>
    <line x1="504" y1="286" x2="1120" y2="286" stroke="rgba(255,255,255,0.08)" stroke-width="1" />
    <text x="504" y="314" class="mono" font-size="13.5" fill="#e2e8f0">$ skills --list</text>
    <!-- 1. Make (Integromat) | Ширина = 155 -->
    <g class="pill" opacity="0">
      <animate attributeName="opacity" values="0;1" dur="0.4s" begin="3.2s" fill="freeze" />
      <rect x="504.0" y="336.0" width="155.0" height="30" rx="15" fill="rgba(255,255,255,0.03)" stroke="rgba(255,255,255,0.08)" stroke-width="1" />
      <circle cx="519.0" cy="351.0" r="3" fill="#d4ff00">
        <animate attributeName="opacity" values="0.4;1;0.4" dur="2.4s" begin="3.2s" repeatCount="indefinite" />
      </circle>
      <text x="530.0" y="354.5" class="mono" font-size="11.6" fill="#f8fafc">Make (Integromat)</text>
    </g>
    <!-- 2. React | Ширина = 74 -> X = 504 + 155 + 10 = 669 -->
    <g class="pill" opacity="0">
      <animate attributeName="opacity" values="0;1" dur="0.4s" begin="3.34s" fill="freeze" />
      <rect x="669.0" y="336.0" width="74.0" height="30" rx="15" fill="rgba(255,255,255,0.03)" stroke="rgba(255,255,255,0.08)" stroke-width="1" />
      <circle cx="684.0" cy="351.0" r="3" fill="#d4ff00">
        <animate attributeName="opacity" values="0.4;1;0.4" dur="2.4s" begin="3.34s" repeatCount="indefinite" />
      </circle>
      <text x="695.0" y="354.5" class="mono" font-size="11.6" fill="#f8fafc">React</text>
    </g>
    <!-- 3. TypeScript | Ширина = 108 -> X = 669 + 74 + 10 = 753 -->
    <g class="pill" opacity="0">
      <animate attributeName="opacity" values="0;1" dur="0.4s" begin="3.48s" fill="freeze" />
      <rect x="753.0" y="336.0" width="108.0" height="30" rx="15" fill="rgba(255,255,255,0.03)" stroke="rgba(255,255,255,0.08)" stroke-width="1" />
      <circle cx="768.0" cy="351.0" r="3" fill="#d4ff00">
        <animate attributeName="opacity" values="0.4;1;0.4" dur="2.4s" begin="3.48s" repeatCount="indefinite" />
      </circle>
      <text x="779.0" y="354.5" class="mono" font-size="11.6" fill="#f8fafc">TypeScript</text>
    </g>
    <!-- 4. Tailwind CSS | Ширина = 122 -> X = 753 + 108 + 10 = 871 -->
    <g class="pill" opacity="0">
      <animate attributeName="opacity" values="0;1" dur="0.4s" begin="3.62s" fill="freeze" />
      <rect x="871.0" y="336.0" width="122.0" height="30" rx="15" fill="rgba(255,255,255,0.03)" stroke="rgba(255,255,255,0.08)" stroke-width="1" />
      <circle cx="886.0" cy="351.0" r="3" fill="#d4ff00">
        <animate attributeName="opacity" values="0.4;1;0.4" dur="2.4s" begin="3.62s" repeatCount="indefinite" />
      </circle>
      <text x="897.0" y="354.5" class="mono" font-size="11.6" fill="#f8fafc">Tailwind CSS</text>
    </g>
    <!-- 5. REST APIs | Ширина = 100 -> X = 871 + 122 + 10 = 1003 -->
    <g class="pill" opacity="0">
      <animate attributeName="opacity" values="0;1" dur="0.4s" begin="3.76s" fill="freeze" />
      <rect x="1003.0" y="336.0" width="100.0" height="30" rx="15" fill="rgba(255,255,255,0.03)" stroke="rgba(255,255,255,0.08)" stroke-width="1" />
      <circle cx="1018.0" cy="351.0" r="3" fill="#d4ff00">
        <animate attributeName="opacity" values="0.4;1;0.4" dur="2.4s" begin="3.76s" repeatCount="indefinite" />
      </circle>
      <text x="1029.0" y="354.5" class="mono" font-size="11.6" fill="#f8fafc">REST APIs</text>
    </g>
    <!-- 6. AI & LLM Integration | Ширина = 180 -->
    <g class="pill" opacity="0">
      <animate attributeName="opacity" values="0;1" dur="0.4s" begin="3.9s" fill="freeze" />
      <rect x="504.0" y="378.0" width="180.0" height="30" rx="15" fill="rgba(255,255,255,0.03)" stroke="rgba(255,255,255,0.08)" stroke-width="1" />
      <circle cx="519.0" cy="393.0" r="3" fill="#d4ff00">
        <animate attributeName="opacity" values="0.4;1;0.4" dur="2.4s" begin="3.9s" repeatCount="indefinite" />
      </circle>
      <text x="530.0" y="396.5" class="mono" font-size="11.6" fill="#f8fafc">AI &amp; LLM Integration</text>
    </g>
    <!-- 7. Telegram WebApps API | Ширина = 181 -> X = 504 + 180 + 10 = 694 -->
    <g class="pill" opacity="0">
      <animate attributeName="opacity" values="0;1" dur="0.4s" begin="4.04s" fill="freeze" />
      <rect x="694.0" y="378.0" width="181.0" height="30" rx="15" fill="rgba(255,255,255,0.03)" stroke="rgba(255,255,255,0.08)" stroke-width="1" />
      <circle cx="709.0" cy="393.0" r="3" fill="#d4ff00">
        <animate attributeName="opacity" values="0.4;1;0.4" dur="2.4s" begin="4.04s" repeatCount="indefinite" />
      </circle>
      <text x="720.0" y="396.5" class="mono" font-size="11.6" fill="#f8fafc">Telegram WebApps API</text>
    </g>
    <!-- 8. Process Architecture | Ширина = 180 -> X = 694 + 181 + 10 = 885 -->
    <g class="pill" opacity="0">
      <animate attributeName="opacity" values="0;1" dur="0.4s" begin="4.18s" fill="freeze" />
      <rect x="885.0" y="378.0" width="180.0" height="30" rx="15" fill="rgba(255,255,255,0.03)" stroke="rgba(255,255,255,0.08)" stroke-width="1" />
      <circle cx="900.0" cy="393.0" r="3" fill="#d4ff00">
        <animate attributeName="opacity" values="0.4;1;0.4" dur="2.4s" begin="4.18s" repeatCount="indefinite" />
      </circle>
      <text x="911.0" y="396.5" class="mono" font-size="11.6" fill="#f8fafc">Process Architecture</text>
    </g>
    <line x1="504" y1="424" x2="1120" y2="424" stroke="rgba(255,255,255,0.08)" stroke-width="1" />
    <!-- 1. GitHub -->
    <a xlink:href="https://github.com/" target="_blank">
      <g class="icon" opacity="0" transform="translate(524.0,462)">
        <animate attributeName="opacity" values="0;1" dur="0.4s" begin="4.2s" fill="freeze" />
        <animateTransform attributeName="transform" type="translate" additive="sum" values="0,0; 0,-3; 0,0" dur="3.6s" begin="4.2s" repeatCount="indefinite" />
        <circle class="icon-ring" cx="0" cy="0" r="20" fill="rgba(255,255,255,0.03)" stroke="rgba(255,255,255,0.08)" stroke-width="1" />
        <path d="M0 -10C-5.52 -10 -10 -5.52 -10 0C-10 4.42 -7.14 8.17 -3.18 9.5C-2.68 9.59 -2.5 9.28 -2.5 9.02C-2.5 8.78 -2.51 7.97 -2.51 7.12C-5.29 7.73 -5.88 6.01 -5.88 6.01C-6.34 4.85 -7 4.54 -7 4.54C-7.91 3.92 -6.93 3.93 -6.93 3.93C-5.92 4 -5.39 4.97 -5.39 4.97C-4.5 6.5 -3.05 6.06 -2.48 5.8C-2.39 5.15 -2.13 4.71 -1.84 4.46C-4.06 4.21 -6.4 3.35 -6.4 -0.5C-6.4 -1.6 -6.01 -2.5 -5.37 -3.21C-5.47 -3.46 -5.81 -4.48 -5.27 -5.87C-5.27 -5.87 -4.42 -6.14 -2.48 -4.84C-1.68 -5.06 -0.82 -5.17 0.03 -5.18C0.88 -5.17 1.74 -5.06 2.54 -4.84C4.47 -6.14 5.32 -5.87 5.32 -5.87C5.87 -4.48 5.53 -3.46 5.43 -3.21C6.07 -2.5 6.46 -1.6 6.46 -0.5C6.46 3.36 4.12 4.21 1.89 4.46C2.24 4.76 2.56 5.37 2.56 6.3C2.56 7.64 2.55 8.72 2.55 9.04C2.55 9.3 2.72 9.61 3.23 9.51C7.18 8.16 10 4.42 10 0C10 -5.52 5.52 -10 0 -10Z" fill="#d4ff00"/>
        <title>GitHub</title>
      </g>
    </a>
    <!-- 2. LinkedIn -->
    <a xlink:href="https://www.linkedin.com/in/" target="_blank">
      <g class="icon" opacity="0" transform="translate(576.0,462)">
        <animate attributeName="opacity" values="0;1" dur="0.4s" begin="4.3s" fill="freeze" />
        <animateTransform attributeName="transform" type="translate" additive="sum" values="0,0; 0,-3; 0,0" dur="4.0s" begin="4.3s" repeatCount="indefinite" />
        <circle class="icon-ring" cx="0" cy="0" r="20" fill="rgba(255,255,255,0.03)" stroke="rgba(255,255,255,0.08)" stroke-width="1" />
        <path d="M-7.5 -2.5H-4.5V7.5H-7.5V-2.5ZM-6 -4C-5 -4 -4.2 -4.8 -4.2 -5.8C-4.2 -6.8 -5 -7.6 -6 -7.6C-7 -7.6 -7.8 -6.8 -7.8 -5.8C-7.8 -4.8 -7 -4.2 -6 -4ZM-2.5 -2.5H0.3V-1.2H0.4C0.8 -1.9 1.7 -2.7 3.2 -2.7C6.3 -2.7 6.8 -0.7 6.8 2.0V7.5H3.8V2.8C3.8 1.7 3.8 0.2 2.2 0.2C0.6 0.2 0.4 1.4 0.4 2.7V7.5H-2.5V-2.5Z" fill="#d4ff00"/>
        <title>LinkedIn</title>
      </g>
    </a>
    <!-- 3. Telegram -->
    <a xlink:href="https://t.me/" target="_blank">
      <g class="icon" opacity="0" transform="translate(628.0,462)">
        <animate attributeName="opacity" values="0;1" dur="0.4s" begin="4.4s" fill="freeze" />
        <animateTransform attributeName="transform" type="translate" additive="sum" values="0,0; 0,-3; 0,0" dur="4.4s" begin="4.4s" repeatCount="indefinite" />
        <circle class="icon-ring" cx="0" cy="0" r="20" fill="rgba(255,255,255,0.03)" stroke="rgba(255,255,255,0.08)" stroke-width="1" />
        <path d="M7.78 -6.74C7.94 -6.89 8.16 -6.93 8.36 -6.84C8.56 -6.75 8.68 -6.55 8.69 -6.33L9.76 3.9C9.84 4.7 9.3 5.44 8.52 5.56C8.28 5.6 8.04 5.54 7.83 5.41L2.83 2.15L0.39 4.54C0.18 4.75 -0.13 4.81 -0.4 4.7C-0.67 4.58 -0.85 4.31 -0.85 4.02L-0.85 1.57L-6.22 -2.29C-6.73 -2.66 -6.83 -3.37 -6.46 -3.88C-6.25 -4.18 -5.9 -4.33 -5.55 -4.27L7.78 -6.74Z" fill="#d4ff00"/>
        <title>Telegram</title>
      </g>
    </a>
    <!-- 4. Instagram -->
    <a xlink:href="https://instagram.com/" target="_blank">
      <g class="icon" opacity="0" transform="translate(680.0,462)">
        <animate attributeName="opacity" values="0;1" dur="0.4s" begin="4.5s" fill="freeze" />
        <animateTransform attributeName="transform" type="translate" additive="sum" values="0,0; 0,-3; 0,0" dur="3.8s" begin="4.5s" repeatCount="indefinite" />
        <circle class="icon-ring" cx="0" cy="0" r="20" fill="rgba(255,255,255,0.03)" stroke="rgba(255,255,255,0.08)" stroke-width="1" />
        <path d="M-4.5 -7.5H4.5C6.15 -7.5 7.5 -6.15 7.5 -4.5V4.5C7.5 6.15 6.15 7.5 4.5 7.5H-4.5C-6.15 7.5 -7.5 6.15 -7.5 4.5V-4.5C-7.5 -6.15 -6.15 -7.5 -4.5 -7.5ZM-4.5 -6.0C-5.33 -6.0 -6.0 -5.33 -6.0 -4.5V4.5C-6.0 5.33 -5.33 6.0 -4.5 6.0H4.5C5.33 6.0 6.0 5.33 6.0 4.5V-4.5C6.0 -5.33 5.33 -6.0 4.5 -6.0H-4.5ZM0 -3.8C2.1 -3.8 3.8 -2.1 3.8 0C3.8 2.1 2.1 3.8 0 3.8C-2.1 3.8 -3.8 2.1 -3.8 0C-3.8 -2.1 -2.1 -3.8 0 -3.8ZM0 -2.3C-1.27 -2.3 -2.3 -1.27 -2.3 0C-2.3 1.27 -1.27 2.3 0 2.3C1.27 2.3 2.3 1.27 2.3 0C2.3 -1.27 1.27 -2.3 0 -2.3ZM4.5 -5.25C4.91 -5.25 5.25 -4.91 5.25 -4.5C5.25 -4.09 4.91 -3.75 4.5 -3.75C4.09 -3.75 3.75 -4.09 3.75 -4.5C3.75 -4.91 4.09 -5.25 4.5 -5.25Z" fill="#d4ff00"/>
        <title>Instagram</title>
      </g>
    </a>
    <!-- 5. TikTok -->
    <a xlink:href="https://tiktok.com/" target="_blank">
      <g class="icon" opacity="0" transform="translate(732.0,462)">
        <animate attributeName="opacity" values="0;1" dur="0.4s" begin="4.6s" fill="freeze" />
        <animateTransform attributeName="transform" type="translate" additive="sum" values="0,0; 0,-3; 0,0" dur="4.2s" begin="4.6s" repeatCount="indefinite" />
        <circle class="icon-ring" cx="0" cy="0" r="20" fill="rgba(255,255,255,0.03)" stroke="rgba(255,255,255,0.08)" stroke-width="1" />
        <path d="M4.5 -6.5C3.5 -6.5 2.6 -5.9 2.2 -5.0V1.5C2.2 4.0 0.2 6.0 -2.3 6.0C-4.8 6.0 -6.8 4.0 -6.8 1.5C-6.8 -1.0 -4.8 -3.0 -2.3 -3.0V-0.5C-3.4 -0.5 -4.3 0.4 -4.3 1.5C-4.3 2.6 -3.4 3.5 -2.3 3.5C-1.2 3.5 -0.3 2.6 -0.3 1.5V-7.5H2.2C2.2 -5.5 3.8 -3.9 5.8 -3.9V-6.4C5.1 -6.4 4.5 -6.4 4.5 -6.5Z" transform="translate(-0.5, 0.5)" fill="#d4ff00"/>
        <title>TikTok</title>
      </g>
    </a>
    <!-- 6. Threads -->
    <a xlink:href="https://threads.net/" target="_blank">
      <g class="icon" opacity="0" transform="translate(784.0,462)">
        <animate attributeName="opacity" values="0;1" dur="0.4s" begin="4.7s" fill="freeze" />
        <animateTransform attributeName="transform" type="translate" additive="sum" values="0,0; 0,-3; 0,0" dur="4.6s" begin="4.7s" repeatCount="indefinite" />
        <circle class="icon-ring" cx="0" cy="0" r="20" fill="rgba(255,255,255,0.03)" stroke="rgba(255,255,255,0.08)" stroke-width="1" />
        <path d="M5.1 -1.5C4.7 -3.5 3.1 -4.8 1.2 -4.8C-1.5 -4.8 -3.5 -2.6 -3.5 0.1C-3.5 2.9 -1.5 5.0 1.2 5.0C2.9 5.0 4.3 4.1 4.8 2.7L3.1 2.0C2.8 2.6 2.1 3.0 1.2 3.0C-0.3 3.0 -1.6 1.7 -1.6 0.1C-1.6 -1.5 -0.3 -2.8 1.2 -2.8C2.1 -2.8 2.8 -2.2 3.1 -1.2H1.2C0.3 -1.2 -0.4 -0.5 -0.4 0.4C-0.4 1.3 0.3 2.0 1.2 2.0C2.1 2.0 2.8 1.4 3.0 0.5C3.4 1.9 4.6 2.8 6.0 2.8C7.5 2.8 8.6 1.7 8.6 0.1C8.6 -4.1 5.0 -6.8 0.5 -6.8C-4.9 -6.8 -8.2 -3.6 -8.2 0.1C-8.2 3.9 -4.7 7.0 0.8 7.0C2.9 7.0 4.9 6.2 6.2 4.8L4.9 3.5C3.9 4.5 2.4 5.0 0.8 5.0C-3.2 5.0 -6.2 2.8 -6.2 0.1C-6.2 -2.6 -3.2 -4.9 0.5 -4.9C3.6 -4.9 6.6 2.8 6.6 0.1C6.6 -1.0 6.0 -1.8 5.1 -1.5ZM1.2 0.4C0.8 0.4 0.5 0.1 0.5 -0.3C0.5 -0.7 0.8 -1.0 1.2 -1.0H2.6C2.5 -0.2 2.0 0.4 1.2 0.4Z" transform="scale(1.05)" fill="#d4ff00"/>
        <title>Threads</title>
      </g>
    </a>
    <!-- 7. YouTube -->
    <a xlink:href="https://youtube.com/" target="_blank">
      <g class="icon" opacity="0" transform="translate(836.0,462)">
        <animate attributeName="opacity" values="0;1" dur="0.4s" begin="4.8s" fill="freeze" />
        <animateTransform attributeName="transform" type="translate" additive="sum" values="0,0; 0,-3; 0,0" dur="3.9s" begin="4.8s" repeatCount="indefinite" />
        <circle class="icon-ring" cx="0" cy="0" r="20" fill="rgba(255,255,255,0.03)" stroke="rgba(255,255,255,0.08)" stroke-width="1" />
        <path d="M7.9 -4.3C8.7 -3.5 9.0 -1.8 9.0 0C9.0 1.8 8.7 3.5 7.9 4.3C7.1 5.1 5.4 5.5 3.5 5.5H-3.5C-5.4 5.5 -7.1 5.1 -7.9 4.3C-8.7 3.5 -9.0 1.8 -9.0 0C-9.0 -1.8 -8.7 -3.5 -7.9 -4.3C-7.1 -5.1 -5.4 -5.5 -3.5 -5.5H3.5C5.4 -5.5 7.1 -5.1 7.9 -4.3ZM-2.0 -2.5V2.5L2.5 0L-2.0 -2.5Z" fill="#d4ff00"/>
        <title>YouTube</title>
      </g>
    </a>
    <!-- 8. Pinterest -->
    <a xlink:href="https://pinterest.com/" target="_blank">
      <g class="icon" opacity="0" transform="translate(888.0,462)">
        <animate attributeName="opacity" values="0;1" dur="0.4s" begin="4.9s" fill="freeze" />
        <animateTransform attributeName="transform" type="translate" additive="sum" values="0,0; 0,-3; 0,0" dur="4.3s" begin="4.9s" repeatCount="indefinite" />
        <circle class="icon-ring" cx="0" cy="0" r="20" fill="rgba(255,255,255,0.03)" stroke="rgba(255,255,255,0.08)" stroke-width="1" />
        <path d="M0 -7.5C-4.1 -7.5 -7.5 -4.1 -7.5 0C-7.5 3.2 -5.5 5.9 -2.7 6.9C-2.8 6.3 -2.8 5.4 -2.6 4.6L-1.6 0.5C-1.6 0.5 -1.9 -0.0 -1.9 -0.8C-1.9 -2.1 -1.1 -3.0 -0.2 -3.0C0.6 -3.0 1.0 -2.4 1.0 -1.7C1.0 -0.9 0.5 0.3 0.2 1.4C0.0 2.2 0.6 2.8 1.4 2.8C2.9 2.8 3.9 1.3 3.9 -0.9C3.9 -2.8 2.5 -4.1 0.2 -4.1C-2.5 -4.1 -4.1 -2.1 -4.1 0.2C-4.1 1.0 -3.8 1.8 -3.4 2.3L-4.1 3.2C-4.3 2.9 -4.7 2.0 -4.7 0.2C-4.7 -2.7 -2.4 -5.3 0.6 -5.3C3.0 -5.3 4.8 -3.6 4.8 -0.9C4.8 1.5 3.3 3.4 1.3 3.4C0.7 3.4 0.1 3.1 -0.1 2.7L-0.7 5.1C-0.9 5.9 -1.4 6.9 -1.7 7.4C-1.1 7.5 -0.6 7.6 0 7.6C4.1 7.6 7.5 4.2 7.5 0C7.5 -4.1 4.1 -7.5 0 -7.5Z" fill="#d4ff00"/>
        <title>Pinterest</title>
      </g>
    </a>
    <!-- 9. Facebook -->
    <a xlink:href="https://facebook.com/" target="_blank">
      <g class="icon" opacity="0" transform="translate(940.0,462)">
        <animate attributeName="opacity" values="0;1" dur="0.4s" begin="5.0s" fill="freeze" />
        <animateTransform attributeName="transform" type="translate" additive="sum" values="0,0; 0,-3; 0,0" dur="4.5s" begin="5.0s" repeatCount="indefinite" />
        <circle class="icon-ring" cx="0" cy="0" r="20" fill="rgba(255,255,255,0.03)" stroke="rgba(255,255,255,0.08)" stroke-width="1" />
        <path d="M4.0 -7.5H1.5C-1.0 -7.5 -2.5 -6.0 -2.5 -3.5V-1.5H-5.0V1.5H-2.5V7.5H0.5V1.5H3.5L4.0 -1.5H0.5V-3.2C0.5 -3.9 0.8 -4.5 1.8 -4.5H4.0V-7.5Z" fill="#d4ff00"/>
        <title>Facebook</title>
      </g>
    </a>
  </g>
</svg>