<svg width="1180" height="610" viewBox="0 0 1180 610" fill="none" xmlns="http://www.w3.org/2000/svg"
  xmlns:xlink="http://www.w3.org/1999/xlink" role="img" aria-label="Angelika Spekter profile banner">
  <title>Anzhelika Spekter — Technical PM Profile</title>
  <defs>
    <!-- Живой анимированный бэкграунд тёмной темы -->
    <linearGradient id="bgGrad" x1="0%" y1="0%" x2="100%" y2="100%">
      <stop offset="0%" stop-color="#07090e" />
      <stop offset="45%" stop-color="#0c0f17" />
      <stop offset="75%" stop-color="#111520" />
      <stop offset="100%" stop-color="#07090e" />
      <animate attributeName="x1" values="0%;20%;0%" dur="18s" repeatCount="indefinite" />
      <animate attributeName="y2" values="100%;80%;100%" dur="18s" repeatCount="indefinite" />
    </linearGradient>

    <!-- Мягкие фоновые неоновые туманности (Лайм и приглушённый графит) -->
    <radialGradient id="glowA" cx="50%" cy="50%" r="50%">
      <stop offset="0%" stop-color="#d4ff00" stop-opacity="0.08" />
      <stop offset="100%" stop-color="#d4ff00" stop-opacity="0" />
    </radialGradient>
    <radialGradient id="glowB" cx="50%" cy="50%" r="50%">
      <stop offset="0%" stop-color="#1e293b" stop-opacity="0.40" />
      <stop offset="100%" stop-color="#1e293b" stop-opacity="0" />
    </radialGradient>
    <radialGradient id="glowC" cx="50%" cy="50%" r="50%">
      <stop offset="0%" stop-color="#d4ff00" stop-opacity="0.05" />
      <stop offset="100%" stop-color="#d4ff00" stop-opacity="0" />
    </radialGradient>

    <!-- Анимированный градиент для левой части (ASCII) в стиле монохром + лайм -->
    <linearGradient id="asciiGrad" x1="0%" y1="0%" x2="100%" y2="100%">
      <stop offset="0%" stop-color="#5b6272">
        <animate attributeName="stop-color" values="#5b6272;#d4ff00;#f8fafc;#5b6272" dur="10s"
          repeatCount="indefinite" />
      </stop>
      <stop offset="50%" stop-color="#d4ff00">
        <animate attributeName="stop-color" values="#d4ff00;#f8fafc;#5b6272;#d4ff00" dur="10s"
          repeatCount="indefinite" />
      </stop>
      <stop offset="100%" stop-color="#f8fafc">
        <animate attributeName="stop-color" values="#f8fafc;#5b6272;#d4ff00;#f8fafc" dur="10s"
          repeatCount="indefinite" />
      </stop>
    </linearGradient>

    <!-- Твой премиальный белый металлик-градиент для имени -->
    <linearGradient id="metalGrad" x1="0%" y1="0%" x2="100%" y2="100%">
      <stop offset="0%" stop-color="#ffffff" />
      <stop offset="35%" stop-color="#ffffff" />
      <stop offset="65%" stop-color="#e2e8f0" />
      <stop offset="100%" stop-color="#cbd5e1" />
    </linearGradient>

    <!-- Строгий мерцающий шиммер внешней рамки -->
    <linearGradient id="borderShimmer" x1="0%" y1="0%" x2="100%" y2="100%">
      <stop offset="0%" stop-color="#1e293b" stop-opacity="0.6" />
      <stop offset="35%" stop-color="#d4ff00" stop-opacity="0.5" />
      <stop offset="70%" stop-color="#5b6272" stop-opacity="0.6" />
      <stop offset="100%" stop-color="#1e293b" stop-opacity="0.6" />
      <animateTransform attributeName="gradientTransform" type="rotate" from="0 0.5 0.5"
        to="360 0.5 0.5" dur="14s" repeatCount="indefinite" />
    </linearGradient>

    <!-- Сканирующая полоса терминала -->
    <linearGradient id="scanGrad" x1="0%" y1="0%" x2="0%" y2="100%">
      <stop offset="0%" stop-color="rgba(212,255,0,0.0)" stop-opacity="0" />
      <stop offset="50%" stop-color="rgba(212,255,0,0.04)" stop-opacity="1" />
      <stop offset="100%" stop-color="rgba(212,255,0,0.0)" stop-opacity="0" />
    </linearGradient>

    <!-- Настройки фильтров размытия и свечения -->
    <filter id="softBlur" x="-50%" y="-50%" width="200%" height="200%">
      <feGaussianBlur stdDeviation="18" />
    </filter>
    <filter id="glassBlur" x="-20%" y="-20%" width="140%" height="140%">
      <feGaussianBlur stdDeviation="6" />
    </filter>
    <filter id="neonGlow" x="-60%" y="-60%" width="220%" height="220%">
      <feGaussianBlur stdDeviation="3" result="blur" />
      <feMerge>
        <feMergeNode in="blur" />
        <feMergeNode in="SourceGraphic" />
      </feMerge>
    </filter>
    <filter id="pillGlow" x="-60%" y="-60%" width="220%" height="220%">
      <feGaussianBlur stdDeviation="2" result="blur" />
      <feMerge>
        <feMergeNode in="blur" />
        <feMergeNode in="SourceGraphic" />
      </feMerge>
    </filter>
    <filter id="noiseFilter">
      <feTurbulence type="fractalNoise" baseFrequency="0.9" numOctaves="2" stitchTiles="stitch"
        result="noise" />
      <feColorMatrix in="noise" type="matrix"
        values="0 0 0 0 1  0 0 0 0 1  0 0 0 0 1  0 0 0 0.025 0" />
    </filter>

    <clipPath id="canvasClip">
      <rect x="0" y="0" width="1180" height="610" rx="28" />
    </clipPath>
    <clipPath id="leftClip">
      <rect x="24" y="24" width="424" height="562" rx="20" />
    </clipPath>

    <style>
      .mono { font-family: 'SFMono-Regular', 'Cascadia Code', Consolas, 'JetBrains Mono', monospace; }
      .sans { font-family: -apple-system, 'Segoe UI', Inter, Arial, sans-serif; }
      .pill { transition: transform 0.25s ease, filter 0.25s ease; transform-box: fill-box; transform-origin: center; cursor: pointer; }
      .pill:hover { transform: scale(1.04); filter: url(#pillGlow); }
      .icon { transition: transform 0.25s ease, filter 0.25s ease; transform-box: fill-box; transform-origin: center; cursor: pointer; }
      .icon:hover { transform: scale(1.15) translateY(-2px); filter: url(#neonGlow); }
      .icon:hover .icon-ring { stroke: #d4ff00; stroke-opacity: 0.6; }
    </style>
  </defs>
  <g clip-path="url(#canvasClip)">
    <rect x="0" y="0" width="1180" height="610" fill="url(#bgGrad)" />
    <rect x="0" y="0" width="1180" height="610" filter="url(#noiseFilter)" opacity="0.035" />
    <circle cx="150" cy="120" r="220" fill="url(#glowA)">
      <animateTransform attributeName="transform" type="translate" values="0,0; 30,40; -10,20; 0,0"
        dur="16s" repeatCount="indefinite" />
    </circle>
    <circle cx="1000" cy="480" r="260" fill="url(#glowB)">
      <animateTransform attributeName="transform" type="translate" values="0,0; -25,-30; 15,10; 0,0"
        dur="20s" repeatCount="indefinite" />
    </circle>
    <circle cx="700" cy="80" r="180" fill="url(#glowC)">
      <animateTransform attributeName="transform" type="translate" values="0,0; 20,25; -20,-10; 0,0"
        dur="13s" repeatCount="indefinite" />
    </circle>
    <g>
      <circle cx="389.2" cy="106.0" r="1.38" fill="#d4ff00" opacity="0.41">
        <animate attributeName="cy" values="106.0;92.0;106.0" dur="4.4s" begin="2.7s"
          repeatCount="indefinite" />
        <animate attributeName="opacity" values="0;0.41;0" dur="4.4s" begin="2.7s"
          repeatCount="indefinite" />
      </circle>
      <circle cx="86.1" cy="309.2" r="0.64" fill="#d4ff00" opacity="0.29">
        <animate attributeName="cy" values="309.2;295.2;309.2" dur="6.2s" begin="0.3s"
          repeatCount="indefinite" />
        <animate attributeName="opacity" values="0;0.29;0" dur="6.2s" begin="0.3s"
          repeatCount="indefinite" />
      </circle>
      <circle cx="504.0" cy="491.3" r="0.75" fill="#d4ff00" opacity="0.68">
        <animate attributeName="cy" values="491.3;477.3;491.3" dur="5.1s" begin="3.1s"
          repeatCount="indefinite" />
        <animate attributeName="opacity" values="0;0.68;0" dur="5.1s" begin="3.1s"
          repeatCount="indefinite" />
      </circle>
      <circle cx="677.9" cy="246.1" r="1.77" fill="#d4ff00" opacity="0.38">
        <animate attributeName="cy" values="246.1;232.1;246.1" dur="4.2s" begin="4.3s"
          repeatCount="indefinite" />
        <animate attributeName="opacity" values="0;0.38;0" dur="4.2s" begin="4.3s"
          repeatCount="indefinite" />
      </circle>
      <circle cx="184.5" cy="87.1" r="0.97" fill="#d4ff00" opacity="0.51">
        <animate attributeName="cy" values="87.1;73.1;87.1" dur="8.1s" begin="0.9s"
          repeatCount="indefinite" />
        <animate attributeName="opacity" values="0;0.51;0" dur="8.1s" begin="0.9s"
          repeatCount="indefinite" />
      </circle>
      <circle cx="748.4" cy="232.3" r="1.26" fill="#d4ff00" opacity="0.34">
        <animate attributeName="cy" values="232.3;218.3;232.3" dur="4.3s" begin="0.3s"
          repeatCount="indefinite" />
        <animate attributeName="opacity" values="0;0.34;0" dur="4.3s" begin="0.3s"
          repeatCount="indefinite" />
      </circle>
      <circle cx="795.7" cy="263.7" r="0.98" fill="#d4ff00" opacity="0.38">
        <animate attributeName="cy" values="263.7;249.7;263.7" dur="6.9s" begin="2.3s"
          repeatCount="indefinite" />
        <animate attributeName="opacity" values="0;0.38;0" dur="6.9s" begin="2.3s"
          repeatCount="indefinite" />
      </circle>
      <circle cx="925.6" cy="418.4" r="0.89" fill="#d4ff00" opacity="0.64">
        <animate attributeName="cy" values="418.4;404.4;418.4" dur="6.9s" begin="2.6s"
          repeatCount="indefinite" />
        <animate attributeName="opacity" values="0;0.64;0" dur="6.9s" begin="2.6s"
          repeatCount="indefinite" />
      </circle>
      <circle cx="851.6" cy="184.1" r="1.78" fill="#d4ff00" opacity="0.59">
        <animate attributeName="cy" values="184.1;170.1;184.1" dur="4.6s" begin="2.1s"
          repeatCount="indefinite" />
        <animate attributeName="opacity" values="0;0.59;0" dur="4.6s" begin="2.1s"
          repeatCount="indefinite" />
      </circle>
      <circle cx="193.3" cy="298.7" r="0.65" fill="#d4ff00" opacity="0.51">
        <animate attributeName="cy" values="298.7;284.7;298.7" dur="7.3s" begin="3.8s"
          repeatCount="indefinite" />
        <animate attributeName="opacity" values="0;0.51;0" dur="7.3s" begin="3.8s"
          repeatCount="indefinite" />
      </circle>
      <circle cx="1018.0" cy="198.8" r="1.43" fill="#d4ff00" opacity="0.46">
        <animate attributeName="cy" values="198.8;184.8;198.8" dur="7.0s" begin="2.9s"
          repeatCount="indefinite" />
        <animate attributeName="opacity" values="0;0.46;0" dur="7.0s" begin="2.9s"
          repeatCount="indefinite" />
      </circle>
      <circle cx="977.6" cy="558.5" r="1.17" fill="#d4ff00" opacity="0.57">
        <animate attributeName="cy" values="558.5;544.5;558.5" dur="7.3s" begin="0.3s"
          repeatCount="indefinite" />
        <animate attributeName="opacity" values="0;0.57;0" dur="7.3s" begin="0.3s"
          repeatCount="indefinite" />
      </circle>
      <circle cx="757.7" cy="586.1" r="1.59" fill="#d4ff00" opacity="0.55">
        <animate attributeName="cy" values="586.1;572.1;586.1" dur="5.4s" begin="1.9s"
          repeatCount="indefinite" />
        <animate attributeName="opacity" values="0;0.55;0" dur="5.4s" begin="1.9s"
          repeatCount="indefinite" />
      </circle>
      <circle cx="45.7" cy="283.2" r="0.80" fill="#d4ff00" opacity="0.60">
        <animate attributeName="cy" values="283.2;269.2;283.2" dur="4.6s" begin="0.3s"
          repeatCount="indefinite" />
        <animate attributeName="opacity" values="0;0.60;0" dur="4.6s" begin="0.3s"
          repeatCount="indefinite" />
      </circle>
      <circle cx="167.4" cy="161.1" r="1.07" fill="#d4ff00" opacity="0.45">
        <animate attributeName="cy" values="161.1;147.1;161.1" dur="8.4s" begin="0.4s"
          repeatCount="indefinite" />
        <animate attributeName="opacity" values="0;0.45;0" dur="8.4s" begin="0.4s"
          repeatCount="indefinite" />
      </circle>
      <circle cx="646.4" cy="523.5" r="1.58" fill="#d4ff00" opacity="0.44">
        <animate attributeName="cy" values="523.5;509.5;523.5" dur="8.3s" begin="1.4s"
          repeatCount="indefinite" />
        <animate attributeName="opacity" values="0;0.44;0" dur="8.3s" begin="1.4s"
          repeatCount="indefinite" />
      </circle>
      <circle cx="429.0" cy="524.0" r="1.75" fill="#d4ff00" opacity="0.35">
        <animate attributeName="cy" values="524.0;510.0;524.0" dur="4.8s" begin="0.9s"
          repeatCount="indefinite" />
        <animate attributeName="opacity" values="0;0.35;0" dur="4.8s" begin="0.9s"
          repeatCount="indefinite" />
      </circle>
      <circle cx="286.0" cy="296.4" r="1.31" fill="#d4ff00" opacity="0.44">
        <animate attributeName="cy" values="296.4;282.4;296.4" dur="5.3s" begin="0.0s"
          repeatCount="indefinite" />
        <animate attributeName="opacity" values="0;0.44;0" dur="5.3s" begin="0.0s"
          repeatCount="indefinite" />
      </circle>
      <circle cx="440.9" cy="342.8" r="1.74" fill="#d4ff00" opacity="0.53">
        <animate attributeName="cy" values="342.8;328.8;342.8" dur="7.5s" begin="2.6s"
          repeatCount="indefinite" />
        <animate attributeName="opacity" values="0;0.53;0" dur="7.5s" begin="2.6s"
          repeatCount="indefinite" />
      </circle>
      <circle cx="790.9" cy="50.8" r="1.68" fill="#d4ff00" opacity="0.61">
        <animate attributeName="cy" values="50.8;36.8;50.8" dur="7.9s" begin="4.4s"
          repeatCount="indefinite" />
        <animate attributeName="opacity" values="0;0.61;0" dur="7.9s" begin="4.4s"
          repeatCount="indefinite" />
      </circle>
      <circle cx="467.3" cy="247.4" r="0.72" fill="#d4ff00" opacity="0.28">
        <animate attributeName="cy" values="247.4;233.4;247.4" dur="7.2s" begin="0.3s"
          repeatCount="indefinite" />
        <animate attributeName="opacity" values="0;0.28;0" dur="7.2s" begin="0.3s"
          repeatCount="indefinite" />
      </circle>
      <circle cx="258.0" cy="112.5" r="1.01" fill="#d4ff00" opacity="0.32">
        <animate attributeName="cy" values="112.5;98.5;112.5" dur="4.3s" begin="0.0s"
          repeatCount="indefinite" />
        <animate attributeName="opacity" values="0;0.32;0" dur="4.3s" begin="0.0s"
          repeatCount="indefinite" />
      </circle>
      <circle cx="135.7" cy="227.3" r="0.63" fill="#d4ff00" opacity="0.32">
        <animate attributeName="cy" values="227.3;213.3;227.3" dur="8.4s" begin="3.1s"
          repeatCount="indefinite" />
        <animate attributeName="opacity" values="0;0.32;0" dur="8.4s" begin="3.1s"
          repeatCount="indefinite" />
      </circle>
      <circle cx="307.6" cy="218.0" r="1.04" fill="#d4ff00" opacity="0.70">
        <animate attributeName="cy" values="218.0;204.0;218.0" dur="4.6s" begin="4.2s"
          repeatCount="indefinite" />
        <animate attributeName="opacity" values="0;0.70;0" dur="4.6s" begin="4.2s"
          repeatCount="indefinite" />
      </circle>
      <circle cx="551.2" cy="295.8" r="0.70" fill="#d4ff00" opacity="0.37">
        <animate attributeName="cy" values="295.8;281.8;295.8" dur="4.5s" begin="1.7s"
          repeatCount="indefinite" />
        <animate attributeName="opacity" values="0;0.37;0" dur="4.5s" begin="1.7s"
          repeatCount="indefinite" />
      </circle>
      <circle cx="964.9" cy="112.0" r="0.63" fill="#d4ff00" opacity="0.32">
        <animate attributeName="cy" values="112.0;98.0;112.0" dur="8.8s" begin="2.6s"
          repeatCount="indefinite" />
        <animate attributeName="opacity" values="0;0.32;0" dur="8.8s" begin="2.6s"
          repeatCount="indefinite" />
      </circle>
    </g>
    <rect x="0" y="-140" width="1180" height="140" fill="url(#scanGrad)">
      <animate attributeName="y" values="-40;610" dur="6s" repeatCount="indefinite" />
    </rect>
  </g>
  <rect x="1.5" y="1.5" width="1177" height="607" rx="27" fill="none" stroke="url(#borderShimmer)"
    stroke-width="1.6" />
  <g>
    <!-- Внешняя рамка левого окна -->
    <rect x="24" y="24" width="424" height="562" rx="15" fill="rgba(13,16,23,0.85)"
      stroke="rgba(212,255,0,0.12)" stroke-width="1" />
    <rect x="24" y="24" width="424" height="40" rx="15" fill="rgba(212,255,0,0.02)" />
    <rect x="24" y="44" width="424" height="20" rx="0" fill="rgba(212,255,0,0.01)" />
    <g clip-path="url(#leftClip)">
      <!-- Мягкий бегущий блик лазера по ASCII матрице -->
      <rect x="-450" y="24" width="200" height="562" fill="rgba(91,33,182,0.03)"
        transform="skewX(-18)">
        <animate attributeName="x" values="-500;700" dur="7s" begin="1s" repeatCount="indefinite" />
      </rect>
    </g>
    <!-- Название файла в шапке окна -->
    <text x="46" y="50" class="mono" font-size="11.5" fill="#5b6272"
      letter-spacing="1.5">
      ~/portrait.ascii</text>
    <line x1="26" y1="64" x2="446" y2="64" stroke="rgba(212,255,0,0.12)" stroke-width="1" />
    <!-- ASCII матрица с фиксированными отступами 40px сверху и слева -->
    <g class="mono" font-size="10.6" fill="url(#asciiGrad)" clip-path="url(#leftClip)">
      <animateTransform attributeName="transform" type="translate" values="0,0; 0,-4; 0,0" dur="6s"
        repeatCount="indefinite" />
      <text x="64" y="106.0" xml:space="preserve" opacity="0">.   . 0        .                 0 1              <animate attributeName="opacity" values="0;1" dur="0.45s" begin="0.0s" fill="freeze"/></text>
      <text x="64" y="119.4" xml:space="preserve" opacity="0">   .            1          0    0       01    00  <animate attributeName="opacity" values="0;1" dur="0.45s" begin="0.1s" fill="freeze"/></text>
      <text x="64" y="132.8" xml:space="preserve" opacity="0"> .        1  00       :::::::           1       . <animate attributeName="opacity" values="0;1" dur="0.45s" begin="0.2s" fill="freeze"/></text>
      <text x="64" y="146.2" xml:space="preserve" opacity="0">1   0 . . .         :---===---:   1   0 1  .  1   <animate attributeName="opacity" values="0;1" dur="0.45s" begin="0.3s" fill="freeze"/></text>
      <text x="64" y="159.6" xml:space="preserve" opacity="0">.                  :-===+++===-:      1           <animate attributeName="opacity" values="0;1" dur="0.45s" begin="0.4s" fill="freeze"/></text>
      <text x="64" y="173.0" xml:space="preserve" opacity="0">                  :-==++***++==-: 1            1 1<animate attributeName="opacity" values="0;1" dur="0.45s" begin="0.5s" fill="freeze"/></text>
      <text x="64" y="186.4" xml:space="preserve" opacity="0">      1 .0.       :-=++**###**++=-:1       1 .     <animate attributeName="opacity" values="0;1" dur="0.45s" begin="0.6s" fill="freeze"/></text>
      <text x="64" y="199.8" xml:space="preserve" opacity="0">                .:-=+*##%%%##*+=-:               .<animate attributeName="opacity" values="0;1" dur="0.45s" begin="0.7s" fill="freeze"/></text>
      <text x="64" y="213.2" xml:space="preserve" opacity="0">1    .  0       :-=+*##%%%%%##*+=-: 0   0 .       <animate attributeName="opacity" values="0;1" dur="0.45s" begin="0.8s" fill="freeze"/></text>
      <text x="64" y="226.6" xml:space="preserve" opacity="0">.       .  1    :-=+*#%%@@@%%#*+=-:      0        <animate attributeName="opacity" values="0;1" dur="0.45s" begin="0.9s" fill="freeze"/></text>
      <text x="64" y="240.0" xml:space="preserve" opacity="0">                :-=+*#%@@@@@%#*+=-:          1   .<animate attributeName="opacity" values="0;1" dur="0.45s" begin="1.0s" fill="freeze"/></text>
      <text x="64" y="253.4" xml:space="preserve" opacity="0">            0   :-=+*#%%@@@%%#*+=-:  ..          1<animate attributeName="opacity" values="0;1" dur="0.45s" begin="1.1s" fill="freeze"/></text>
      <text x="64" y="266.8" xml:space="preserve" opacity="0">      . 0       :-=+*##%@@@%##*+=-: 11            <animate attributeName="opacity" values="0;1" dur="0.45s" begin="1.2s" fill="freeze"/></text>
      <text x="64" y="280.2" xml:space="preserve" opacity="0">  0    1 1      :-=++*##%%%##*++=-:     1    1   .<animate attributeName="opacity" values="0;1" dur="0.45s" begin="1.3s" fill="freeze"/></text>
      <text x="64" y="293.6" xml:space="preserve" opacity="0">  0        .  1  :-=+**#####**+=-:.      01       <animate attributeName="opacity" values="0;1" dur="0.45s" begin="1.4s" fill="freeze"/></text>
      <text x="64" y="307.0" xml:space="preserve" opacity="0">         1   1   ::-=++*****++=-::     .   .  .   <animate attributeName="opacity" values="0;1" dur="0.45s" begin="1.5s" fill="freeze"/></text>
      <text x="64" y="320.4" xml:space="preserve" opacity="0"> 0 0      1.      :--==+++++==--:   1  .          <animate attributeName="opacity" values="0;1" dur="0.45s" begin="1.6s" fill="freeze"/></text>
      <text x="64" y="333.8" xml:space="preserve" opacity="0">           1  1.   ::--=====--::     0  .    .    <animate attributeName="opacity" values="0;1" dur="0.45s" begin="1.7s" fill="freeze"/></text>
      <text x="64" y="347.2" xml:space="preserve" opacity="0"> 0   1     1   0     ::-----::  1                 <animate attributeName="opacity" values="0;1" dur="0.45s" begin="1.8s" fill="freeze"/></text>
      <text x="64" y="360.6" xml:space="preserve" opacity="0">  .1 .     .1  .:--=++*#:::#*++=--:.       .     1<animate attributeName="opacity" values="0;1" dur="0.45s" begin="1.9s" fill="freeze"/></text>
      <text x="64" y="374.0" xml:space="preserve" opacity="0">1 0   1     .. ::-==+**#%@%#**+==-::           0 1<animate attributeName="opacity" values="0;1" dur="0.45s" begin="2.0s" fill="freeze"/></text>
      <text x="64" y="387.4" xml:space="preserve" opacity="0">  .   1   .1 0::--==+**#%@%#**+==--::             <animate attributeName="opacity" values="0;1" dur="0.45s" begin="2.1s" fill="freeze"/></text>
      <text x="64" y="400.8" xml:space="preserve" opacity="0">1            ::--==++*##%@%##*++==--::   1    .   <animate attributeName="opacity" values="0;1" dur="0.45s" begin="2.2s" fill="freeze"/></text>
      <text x="64" y="414.2" xml:space="preserve" opacity="0">         .1 ::---==++*##%@%##*++==---::     0     <animate attributeName="opacity" values="0;1" dur="0.45s" begin="2.3s" fill="freeze"/></text>
      <text x="64" y="427.6" xml:space="preserve" opacity="0">   .       :::--==++**##%@%##**++==--:::  .  .  .0<animate attributeName="opacity" values="0;1" dur="0.45s" begin="2.4s" fill="freeze"/></text>
      <text x="64" y="441.0" xml:space="preserve" opacity="0">        .1:::--===++**#%%@%%#**++===--:::        1<animate attributeName="opacity" values="0;1" dur="0.45s" begin="2.5s" fill="freeze"/></text>
      <text x="64" y="454.4" xml:space="preserve" opacity="0">   1  .  .::---==+++**#%%@%%#**+++==---::.        <animate attributeName="opacity" values="0;1" dur="0.45s" begin="2.6s" fill="freeze"/></text>
      <text x="64" y="467.8" xml:space="preserve" opacity="0">         :::--===++**##%%@%%##**++===--:::        <animate attributeName="opacity" values="0;1" dur="0.45s" begin="2.7s" fill="freeze"/></text>
      <text x="64" y="481.2" xml:space="preserve" opacity="0"> 0      :::---==+++**##%%@%%##**+++==---::: .  0  <animate attributeName="opacity" values="0;1" dur="0.45s" begin="2.8s" fill="freeze"/></text>
      <text x="64" y="494.6" xml:space="preserve" opacity="0">       :::---===+++**##%%@%%##**+++===---:::    0 <animate attributeName="opacity" values="0;1" dur="0.45s" begin="2.9s" fill="freeze"/></text>
      <text x="64" y="508.0" xml:space="preserve" opacity="0">      :::----===++***##%%@%%##***++===----:::1    <animate attributeName="opacity" values="0;1" dur="0.45s" begin="3.0s" fill="freeze"/></text>
      <text x="64" y="521.4" xml:space="preserve" opacity="0">0    ::::---===+++***##%@@@%##***+++===---:::: 1  <animate attributeName="opacity" values="0;1" dur="0.45s" begin="3.1s" fill="freeze"/></text>
      <text x="64" y="534.8" xml:space="preserve" opacity="0">    ::::---====+++**###%@@@%###**+++====---::::   <animate attributeName="opacity" values="0;1" dur="0.45s" begin="3.2s" fill="freeze"/></text>
      <text x="64" y="548.2" xml:space="preserve" opacity="0">   .:::----===+++***##%%@@@%%##***+++===----:::.  <animate attributeName="opacity" values="0;1" dur="0.45s" begin="3.3s" fill="freeze"/></text>
    </g>
    <!-- Курсор терминала прыгает в конец последней строки -->
    <rect x="64" y="552.0" width="7" height="12" fill="#d4ff00" opacity="0">
      <animate attributeName="opacity" values="0;1;1;0;0" keyTimes="0;0.05;0.5;0.55;1" dur="1.1s"
        begin="3.4s" repeatCount="indefinite" />
    </rect>
  </g>
  <g>
    <!-- Главная подложка окна терминала (эффект тёмного матового стекла) -->
    <rect x="468" y="24" width="688" height="562" rx="15" fill="rgba(13,16,23,0.85)"
      stroke="rgba(212,255,0,0.12)" stroke-width="1" />
    <!-- Шапка окна (панель с кнопками управления) -->
    <rect x="468" y="24" width="688" height="40" rx="15" fill="rgba(212,255,0,0.02)" />
    <rect x="468" y="44" width="688" height="20" fill="rgba(212,255,0,0.02)" />
    <!-- Три каноничные кнопки macOS (закрыть, свернуть, развернуть) -->
    <circle cx="494" cy="44" r="6" fill="#ff5f57" />
    <circle cx="514" cy="44" r="6" fill="#febc2e" />
    <circle cx="534" cy="44" r="6" fill="#28c840" />
    <!-- Заголовок вкладки терминала (приглушённый, чтобы не перебивать акценты) -->
    <text x="812.0" y="48" text-anchor="middle" class="mono" font-size="11.5" fill="#5b6272"
      letter-spacing="1.5">anzhelika — zsh</text>
    <!-- Разделительная линия между шапкой и рабочей зоной -->
    <line x1="468" y1="64" x2="1156" y2="64" stroke="rgba(212,255,0,0.12)" stroke-width="1" />
    <!-- Главное приветствие (Шрифт 400, Имя — жирный металлик градиент 600) -->
    <text x="500" y="122" class="mono sans" font-size="26" font-weight="400" fill="#f8fafc">Hi <tspan
        fill="#be185d">👋</tspan> I&#8217;m <tspan fill="url(#metalGrad)" font-weight="600">Anzhelika
      Spekter</tspan></text>
    <rect x="500" y="132" width="0" fill="none" />
    <g class="mono" font-size="17" fill="#d4ff00">
      <text x="500" y="155" fill="#5b6272" font-size="14">$ role:</text>
      <!-- 1. Technical Product Manager (0s - 4s) -->
      <text x="570" y="155" clip-path="url(#roleClip0)" opacity="0">Technical Product Manager <animate
          attributeName="opacity" values="0;1;1;0;0" keyTimes="0;0.05;0.9;0.95;1" dur="16s"
          begin="0s" repeatCount="indefinite" />
      </text>
      <!-- 2. Workflow Automation Expert (4s - 8s) -->
      <text x="570" y="155" clip-path="url(#roleClip1)" opacity="0">Workflow Automation Expert <animate
          attributeName="opacity" values="0;1;1;0;0" keyTimes="0;0.25;0.45;0.48;1" dur="16s"
          begin="0s" repeatCount="indefinite" />
      </text>
      <!-- 3. Product Infrastructure Lead (8s - 12s) -->
      <text x="570" y="155" clip-path="url(#roleClip2)" opacity="0">Product Infrastructure Lead <animate
          attributeName="opacity" values="0;1;1;0;0" keyTimes="0;0.50;0.70;0.73;1" dur="16s"
          begin="0s" repeatCount="indefinite" />
      </text>
      <!-- 4. AI Integrations Specialist (12s - 16s) -->
      <text x="570" y="155" clip-path="url(#roleClip3)" opacity="0">AI Integrations Specialist <animate
          attributeName="opacity" values="0;1;1;0;0" keyTimes="0;0.75;0.95;0.98;1" dur="16s"
          begin="0s" repeatCount="indefinite" />
      </text>
    </g>
    <clipPath id="roleClip0">
      <rect x="570" y="130" height="30" width="0">
        <animate attributeName="width" values="0;260;260;0;0" keyTimes="0;0.05;0.20;0.24;1"
          dur="16s" begin="0s" repeatCount="indefinite" />
      </rect>
    </clipPath>
    <clipPath id="roleClip1">
      <rect x="570" y="130" height="30" width="0">
        <animate attributeName="width" values="0;0;290;290;0;0" keyTimes="0;0.25;0.30;0.45;0.49;1"
          dur="16s" begin="0s" repeatCount="indefinite" />
      </rect>
    </clipPath>
    <clipPath id="roleClip2">
      <rect x="570" y="130" height="30" width="0">
        <animate attributeName="width" values="0;0;270;270;0;0" keyTimes="0;0.50;0.55;0.70;0.74;1"
          dur="16s" begin="0s" repeatCount="indefinite" />
      </rect>
    </clipPath>
    <clipPath id="roleClip3">
      <rect x="570" y="130" height="30" width="0">
        <animate attributeName="width" values="0;0;250;250;0;0" keyTimes="0;0.75;0.80;0.95;0.99;1"
          dur="16s" begin="0s" repeatCount="indefinite" />
      </rect>
    </clipPath>
    <line x1="500" y1="170" x2="1120" y2="170" stroke="rgba(255,255,255,0.08)" stroke-width="1" />
    <!-- 1. Location -->
    <g opacity="0" transform="translate(-14,0)">
      <animate attributeName="opacity" values="0;1" dur="0.5s" begin="1.0s" fill="freeze" />
      <animateTransform attributeName="transform" type="translate" values="-14,0;0,0" dur="0.5s"
        begin="1.0s" fill="freeze" />
      <text x="500" y="196" class="mono" font-size="13.5">
        <tspan fill="#5b6272">Location</tspan>
        <tspan fill="#5b6272">:</tspan>
        <tspan fill="#f8fafc">Kyiv, Ukraine</tspan>
      </text>
    </g>
    <!-- 2. Current Focus -->
    <g opacity="0" transform="translate(-14,0)">
      <animate attributeName="opacity" values="0;1" dur="0.5s" begin="1.35s" fill="freeze" />
      <animateTransform attributeName="transform" type="translate" values="-14,0;0,0" dur="0.5s"
        begin="1.35s" fill="freeze" />
      <text x="500" y="220" class="mono" font-size="13.5">
        <tspan fill="#5b6272">Current Focus</tspan>
        <tspan fill="#5b6272">:</tspan>
        <tspan fill="#f8fafc">AI Engineering · Agents · Automation · TG Mini Apps</tspan>
      </text>
    </g>
    <!-- 3. Portfolio -->
    <g opacity="0" transform="translate(-14,0)">
      <animate attributeName="opacity" values="0;1" dur="0.5s" begin="1.7s" fill="freeze" />
      <animateTransform attributeName="transform" type="translate" values="-14,0;0,0" dur="0.5s"
        begin="1.7s" fill="freeze" />
      <a xlink:href="https://t.me/+U7y9wJH6ZpAxZTEy" target="_blank"
        style="cursor: pointer; text-decoration: underline;">
        <text x="500" y="245" class="mono" font-size="13.5">
          <tspan fill="#5b6272">Portfolio</tspan>
          <tspan fill="#5b6272">:</tspan>
          <tspan fill="#f8fafc">Telegram Showcase</tspan>
        </text>
      </a>
    </g>
    <!-- 4. Email -->
    <g opacity="0" transform="translate(-14,0)">
      <animate attributeName="opacity" values="0;1" dur="0.5s" begin="2.05s" fill="freeze" />
      <animateTransform attributeName="transform" type="translate" values="-14,0;0,0" dur="0.5s"
        begin="2.05s" fill="freeze" />
      <a xlink:href="mailto:anzhelikaspekter@gmail.com"
        style="cursor: pointer; text-decoration: underline;">
        <text x="500" y="270" class="mono" font-size="13.5">
          <tspan fill="#5b6272">Email</tspan>
          <tspan fill="#5b6272">:</tspan>
          <tspan fill="#f8fafc">anzhelikaspekter@gmail.com</tspan>
        </text>
      </a>
    </g>
    <line x1="500" y1="290" x2="1120" y2="290" stroke="rgba(255,255,255,0.08)" stroke-width="1" />
    <text x="500" y="320" class="mono" font-size="13.5" fill="#e2e8f0">$ skills --list</text>
    <!-- 1. Make (Integromat) | Ширина = 155 -->
    <g class="pill" opacity="0">
      <animate attributeName="opacity" values="0;1" dur="0.4s" begin="3.2s" fill="freeze" />
      <rect x="500.0" y="340.0" width="160.0" height="30" rx="15" fill="rgba(255,255,255,0.03)"
        stroke="rgba(255,255,255,0.08)" stroke-width="1" />
      <circle cx="519.0" cy="354.0" r="3" fill="#d4ff00">
        <animate attributeName="opacity" values="0.4;1;0.4" dur="2.4s" begin="3.2s"
          repeatCount="indefinite" />
      </circle>
      <text x="530.0" y="358" class="mono" font-size="11.6" fill="#f8fafc">Make (Integromat)</text>
    </g>
    <!-- 2. React | Ширина = 74 -> X = 504 + 155 + 10 = 669 -->
    <g class="pill" opacity="0">
      <animate attributeName="opacity" values="0;1" dur="0.4s" begin="3.34s" fill="freeze" />
      <rect x="670.0" y="340.0" width="74.0" height="30" rx="15" fill="rgba(255,255,255,0.03)"
        stroke="rgba(255,255,255,0.08)" stroke-width="1" />
      <circle cx="685.0" cy="354.0" r="3" fill="#d4ff00">
        <animate attributeName="opacity" values="0.4;1;0.4" dur="2.4s" begin="3.34s"
          repeatCount="indefinite" />
      </circle>
      <text x="695.0" y="358" class="mono" font-size="11.6" fill="#f8fafc">React</text>
    </g>
    <!-- 3. TypeScript | Ширина = 108 -> X = 669 + 74 + 10 = 753 -->
    <g class="pill" opacity="0">
      <animate attributeName="opacity" values="0;1" dur="0.4s" begin="3.48s" fill="freeze" />
      <rect x="754" y="340.0" width="108.0" height="30" rx="15" fill="rgba(255,255,255,0.03)"
        stroke="rgba(255,255,255,0.08)" stroke-width="1" />
      <circle cx="768.0" cy="354.0" r="3" fill="#d4ff00">
        <animate attributeName="opacity" values="0.4;1;0.4" dur="2.4s" begin="3.48s"
          repeatCount="indefinite" />
      </circle>
      <text x="780.0" y="358" class="mono" font-size="11.6" fill="#f8fafc">TypeScript</text>
    </g>
    <!-- 4. Tailwind CSS | Ширина = 122 -> X = 753 + 108 + 10 = 871 -->
    <g class="pill" opacity="0">
      <animate attributeName="opacity" values="0;1" dur="0.4s" begin="3.62s" fill="freeze" />
      <rect x="872.0" y="340.0" width="122.0" height="30" rx="15" fill="rgba(255,255,255,0.03)"
        stroke="rgba(255,255,255,0.08)" stroke-width="1" />
      <circle cx="887.0" cy="354.0" r="3" fill="#d4ff00">
        <animate attributeName="opacity" values="0.4;1;0.4" dur="2.4s" begin="3.62s"
          repeatCount="indefinite" />
      </circle>
      <text x="897.0" y="358" class="mono" font-size="11.6" fill="#f8fafc">Tailwind CSS</text>
    </g>
    <!-- 5. REST APIs | Ширина = 100 -> X = 871 + 122 + 10 = 1003 -->
    <g class="pill" opacity="0">
      <animate attributeName="opacity" values="0;1" dur="0.4s" begin="3.76s" fill="freeze" />
      <rect x="1004.0" y="340.0" width="100.0" height="30" rx="15" fill="rgba(255,255,255,0.03)"
        stroke="rgba(255,255,255,0.08)" stroke-width="1" />
      <circle cx="1018.0" cy="354.0" r="3" fill="#d4ff00">
        <animate attributeName="opacity" values="0.4;1;0.4" dur="2.4s" begin="3.76s"
          repeatCount="indefinite" />
      </circle>
      <text x="1030.0" y="358" class="mono" font-size="11.6" fill="#f8fafc">REST APIs</text>
    </g>
    <!-- 6. AI & LLM Integration | Ширина = 180 -->
    <g class="pill" opacity="0">
      <animate attributeName="opacity" values="0;1" dur="0.4s" begin="3.9s" fill="freeze" />
      <rect x="500.0" y="380.0" width="180.0" height="30" rx="15" fill="rgba(255,255,255,0.03)"
        stroke="rgba(255,255,255,0.08)" stroke-width="1" />
      <circle cx="519.0" cy="394.0" r="3" fill="#d4ff00">
        <animate attributeName="opacity" values="0.4;1;0.4" dur="2.4s" begin="3.9s"
          repeatCount="indefinite" />
      </circle>
      <text x="530.0" y="398" class="mono" font-size="11.6" fill="#f8fafc">AI &amp; LLM
        Integration</text>
    </g>
    <!-- 7. Telegram WebApps API | Ширина = 181 -> X = 504 + 180 + 10 = 694 -->
    <g class="pill" opacity="0">
      <animate attributeName="opacity" values="0;1" dur="0.4s" begin="4.04s" fill="freeze" />
      <rect x="690.0" y="380.0" width="181.0" height="30" rx="15" fill="rgba(255,255,255,0.03)"
        stroke="rgba(255,255,255,0.08)" stroke-width="1" />
      <circle cx="708.0" cy="394.0" r="3" fill="#d4ff00">
        <animate attributeName="opacity" values="0.4;1;0.4" dur="2.4s" begin="4.04s"
          repeatCount="indefinite" />
      </circle>
      <text x="719.0" y="398" class="mono" font-size="11.6" fill="#f8fafc">Telegram WebApps API</text>
    </g>
    <!-- 8. Process Architecture | Ширина = 180 -> X = 694 + 181 + 10 = 885 -->
    <g class="pill" opacity="0">
      <animate attributeName="opacity" values="0;1" dur="0.4s" begin="4.18s" fill="freeze" />
      <rect x="881.0" y="380.0" width="180.0" height="30" rx="15" fill="rgba(255,255,255,0.03)"
        stroke="rgba(255,255,255,0.08)" stroke-width="1" />
      <circle cx="898.0" cy="394.0" r="3" fill="#d4ff00">
        <animate attributeName="opacity" values="0.4;1;0.4" dur="2.4s" begin="4.18s"
          repeatCount="indefinite" />
      </circle>
      <text x="910.0" y="398" class="mono" font-size="11.6" fill="#f8fafc">Process Architecture</text>
    </g>
    <line x1="500" y1="430" x2="1120" y2="430" stroke="rgba(255,255,255,0.08)" stroke-width="1" />
    <!-- 1. GitHub -->
    <a xlink:href="https://github.com/" target="_blank">
      <g class="icon" opacity="0" transform="translate(524.0,462)">
        <animate attributeName="opacity" values="0;1" dur="0.4s" begin="4.2s" fill="freeze" />
        <animateTransform attributeName="transform" type="translate" additive="sum"
          values="0,0; 0,-3; 0,0" dur="3.6s" begin="4.2s" repeatCount="indefinite" />
        <circle class="icon-ring" cx="0" cy="0" r="20" fill="rgba(255,255,255,0.03)"
          stroke="rgba(255,255,255,0.08)" stroke-width="1" />
        <path
          d="M216.5 362.5c-66-8-112.5-55.5-112.5-117 0-25 9-52 24-70-6.5-16.5-5.5-51.5 2-66 20-2.5 47 8 63 22.5 19-6 39-9 63.5-9s44.5 3 62.5 8.5c15.5-14 43-24.5 63-22 7 13.5 8 48.5 1.5 65.5 16 19 24.5 44.5 24.5 70.5 0 61.5-46.5 108-113.5 116.5 17 11 28.5 35 28.5 62.5l0 52C323 491.5 335.5 500 350.5 494 441 459.5 512 369 512 257 512 115.5 397 0 255.5 0S0 115.5 0 257c0 111 70.5 203 165.5 237.5 13.5 5 26.5-4 26.5-17.5l0-40c-7 3-16 5-24 5-33 0-52.5-18-66.5-51.5-5.5-13.5-11.5-21.5-23-23-6-.5-8-3-8-6 0-6 10-10.5 20-10.5 14.5 0 27 9 40 27.5 10 14.5 20.5 21 33 21s20.5-4.5 32-16c8.5-8.5 15-16 21-21z"
          transform="scale(0.04) translate(-256, -256)"
          fill="#d4ff00" />
        <title>GitHub</title>
      </g>
    </a>
    <!-- 2. LinkedIn -->
    <a xlink:href="https://www.linkedin.com/in/" target="_blank">
      <g class="icon" opacity="0" transform="translate(576.0,462)">
        <animate attributeName="opacity" values="0;1" dur="0.4s" begin="4.3s" fill="freeze" />
        <animateTransform attributeName="transform" type="translate" additive="sum"
          values="0,0; 0,-3; 0,0" dur="4.0s" begin="4.3s" repeatCount="indefinite" />
        <circle class="icon-ring" cx="0" cy="0" r="20" fill="rgba(255,255,255,0.03)"
          stroke="rgba(255,255,255,0.08)" stroke-width="1" />
        <path
          d="M100.3 448l-92.9 0 0-299.1 92.9 0 0 299.1zM53.8 108.1C24.1 108.1 0 83.5 0 53.8 0 39.5 5.7 25.9 15.8 15.8s23.8-15.8 38-15.8 27.9 5.7 38 15.8 15.8 23.8 15.8 38c0 29.7-24.1 54.3-53.8 54.3zM447.9 448l-92.7 0 0-145.6c0-34.7-.7-79.2-48.3-79.2-48.3 0-55.7 37.7-55.7 76.7l0 148.1-92.8 0 0-299.1 89.1 0 0 40.8 1.3 0c12.4-23.5 42.7-48.3 87.9-48.3 94 0 111.3 61.9 111.3 142.3l0 164.3-.1 0z"
          transform="scale(0.042) translate(-224, -224)"
          fill="#d4ff00" />
        <title>LinkedIn</title>
      </g>
    </a>
    <!-- 3. Telegram -->
    <a xlink:href="https://t.me/" target="_blank">
      <g class="icon" opacity="0" transform="translate(628.0,462)">
        <animate attributeName="opacity" values="0;1" dur="0.4s" begin="4.4s" fill="freeze" />
        <animateTransform attributeName="transform" type="translate" additive="sum"
          values="0,0; 0,-3; 0,0" dur="4.4s" begin="4.4s" repeatCount="indefinite" />
        <circle class="icon-ring" cx="0" cy="0" r="20" fill="rgba(255,255,255,0.03)"
          stroke="rgba(255,255,255,0.08)" stroke-width="1" />
        <path
          d="M256 8a248 248 0 1 0 0 496 248 248 0 1 0 0-496zM371 176.7c-3.7 39.2-19.9 134.4-28.1 178.3-3.5 18.6-10.3 24.8-16.9 25.4-14.4 1.3-25.3-9.5-39.3-18.7-21.8-14.3-34.2-23.2-55.3-37.2-24.5-16.1-8.6-25 5.3-39.5 3.7-3.8 67.1-61.5 68.3-66.7 .2-.7 .3-3.1-1.2-4.4s-3.6-.8-5.1-.5c-2.2 .5-37.1 23.5-104.6 69.1-9.9 6.8-18.9 10.1-26.9 9.9-8.9-.2-25.9-5-38.6-9.1-15.5-5-27.9-7.7-26.8-16.3 .6-4.5 6.7-9 18.4-13.7 72.3-31.5 120.5-52.3 144.6-62.3 68.9-28.6 83.2-33.6 92.5-33.8 2.1 0 6.6 .5 9.6 2.9 2 1.7 3.2 4.1 3.5 6.7 .5 3.2 .6 6.5 .4 9.8z"
          transform="scale(0.04) translate(-256, -256)"
          fill="#d4ff00" />
        <title>Telegram</title>
      </g>
    </a>
    <!-- 4. Instagram -->
    <a xlink:href="https://instagram.com/" target="_blank">
      <g class="icon" opacity="0" transform="translate(680.0,462)">
        <animate attributeName="opacity" values="0;1" dur="0.4s" begin="4.5s" fill="freeze" />
        <animateTransform attributeName="transform" type="translate" additive="sum"
          values="0,0; 0,-3; 0,0" dur="3.8s" begin="4.5s" repeatCount="indefinite" />
        <circle class="icon-ring" cx="0" cy="0" r="20" fill="rgba(255,255,255,0.03)"
          stroke="rgba(255,255,255,0.08)" stroke-width="1" />
        <path
          d="M224.3 141a115 115 0 1 0 -.6 230 115 115 0 1 0 .6-230zm-.6 40.4a74.6 74.6 0 1 1 .6 149.2 74.6 74.6 0 1 1 -.6-149.2zm93.4-45.1a26.8 26.8 0 1 1 53.6 0 26.8 26.8 0 1 1 -53.6 0zm129.7 27.2c-1.7-35.9-9.9-67.7-36.2-93.9-26.2-26.2-58-34.4-93.9-36.2-37-2.1-147.9-2.1-184.9 0-35.8 1.7-67.6 9.9-93.9 36.1s-34.4 58-36.2 93.9c-2.1 37-2.1 147.9 0 184.9 1.7 35.9 9.9 67.7 36.2 93.9s58 34.4 93.9 36.2c37 2.1 147.9 2.1 184.9 0 35.9-1.7 67.7-9.9 93.9-36.2 26.2-26.2 34.4-58 36.2-93.9 2.1-37 2.1-147.8 0-184.8zM399 388c-7.8 19.6-22.9 34.7-42.6 42.6-29.5 11.7-99.5 9-132.1 9s-102.7 2.6-132.1-9c-19.6-7.8-34.7-22.9-42.6-42.6-11.7-29.5-9-99.5-9-132.1s-2.6-102.7 9-132.1c7.8-19.6 22.9-34.7 42.6-42.6 29.5-11.7 99.5-9 132.1-9s102.7-2.6 132.1 9c19.6 7.8 34.7 22.9 42.6 42.6 11.7 29.5 9 99.5 9 132.1s2.7 102.7-9 132.1z"
          transform="scale(0.04) translate(-256, -256)"
          fill="#d4ff00" />
        <title>Instagram</title>
      </g>
    </a>
    <!-- 5. TikTok -->
    <a xlink:href="https://tiktok.com/" target="_blank">
      <g class="icon" opacity="0" transform="translate(732.0,462)">
        <animate attributeName="opacity" values="0;1" dur="0.4s" begin="4.6s" fill="freeze" />
        <animateTransform attributeName="transform" type="translate" additive="sum"
          values="0,0; 0,-3; 0,0" dur="4.2s" begin="4.6s" repeatCount="indefinite" />
        <circle class="icon-ring" cx="0" cy="0" r="20" fill="rgba(255,255,255,0.03)"
          stroke="rgba(255,255,255,0.08)" stroke-width="1" />
        <path
          d="M448.5 209.9c-44 .1-87-13.6-122.8-39.2l0 178.7c0 33.1-10.1 65.4-29 92.6s-45.6 48-76.6 59.6-64.8 13.5-96.9 5.3-60.9-25.9-82.7-50.8-35.3-56-39-88.9 2.9-66.1 18.6-95.2 40-52.7 69.6-67.7 62.9-20.5 95.7-16l0 89.9c-15-4.7-31.1-4.6-46 .4s-27.9 14.6-37 27.3-14 28.1-13.9 43.9 5.2 31 14.5 43.7 22.4 22.1 37.4 26.9 31.1 4.8 46-.1 28-14.4 37.2-27.1 14.2-28.1 14.2-43.8l0-349.4 88 0c-.1 7.4 .6 14.9 1.9 22.2 3.1 16.3 9.4 31.9 18.7 45.7s21.3 25.6 35.2 34.6c19.9 13.1 43.2 20.1 67 20.1l0 87.4z"
          transform="scale(0.04) translate(-256, -256)"
          fill="#d4ff00" />
        <title>TikTok</title>
      </g>
    </a>
    <!-- 6. Threads -->
    <a xlink:href="https://threads.net/" target="_blank">
      <g class="icon" opacity="0" transform="translate(784.0,462)">
        <animate attributeName="opacity" values="0;1" dur="0.4s" begin="4.7s" fill="freeze" />
        <animateTransform attributeName="transform" type="translate" additive="sum"
          values="0,0; 0,-3; 0,0" dur="4.6s" begin="4.7s" repeatCount="indefinite" />
        <circle class="icon-ring" cx="0" cy="0" r="20" fill="rgba(255,255,255,0.03)"
          stroke="rgba(255,255,255,0.08)" stroke-width="1" />
        <path
          d="M340.8 238c-.6-69.6-38.3-111.5-102-111.5-42.5 0-78.3 19.2-97.1 49.9l41.2 28.7c10.7-16.8 25.4-30.8 52.4-30.8 30.5 0 46.3 17 50.8 48.5-14.7-2.3-29.5-3.5-44.6-3.5-82.4 0-121.1 37.3-121.1 86.6s38.8 79.7 95.9 79.7c62.7 0 100.1-42.2 115.4-94.5 15.9 7.2 26.9 24 26.9 49.3 0 67.6-78 104.5-144.1 104.5-97.5 0-161.3-64-161.3-168.2 0-127.6 84.3-209.4 197.6-209.4 76 0 113.6 33.4 139.2 78.1L432 115.9c-27.8-58-89.9-99.5-183.1-99.5-148.5 0-249.5 105.4-249.5 258.2 0 139.8 98.9 220.9 216.7 220.9 97.4 0 195.8-56.8 195.8-154 0-50.8-29.2-84.5-71.2-103.5zM214.4 334.9c-21.5 0-40.4-10.2-40.4-29 0-29.6 36.4-38.6 72-38.6 13.5 0 26.8 .9 38.5 3.5-8.4 38.5-33.4 64.2-70 64.2l0 0z"
          transform="scale(0.04) translate(-256, -256)"
          fill="#d4ff00" />
        <title>Threads</title>
      </g>
    </a>
    <!-- 7. YouTube -->
    <a xlink:href="https://youtube.com/" target="_blank">
      <g class="icon" opacity="0" transform="translate(836.0,462)">
        <animate attributeName="opacity" values="0;1" dur="0.4s" begin="4.8s" fill="freeze" />
        <animateTransform attributeName="transform" type="translate" additive="sum"
          values="0,0; 0,-3; 0,0" dur="3.9s" begin="4.8s" repeatCount="indefinite" />
        <circle class="icon-ring" cx="0" cy="0" r="20" fill="rgba(255,255,255,0.03)"
          stroke="rgba(255,255,255,0.08)" stroke-width="1" />
        <path
          d="M549.7 124.1C543.5 100.4 524.9 81.8 501.4 75.5 458.9 64 288.1 64 288.1 64S117.3 64 74.7 75.5C51.2 81.8 32.7 100.4 26.4 124.1 15 167 15 256.4 15 256.4s0 89.4 11.4 132.3c6.3 23.6 24.8 41.5 48.3 47.8 42.6 11.5 213.4 11.5 213.4 11.5s170.8 0 213.4-11.5c23.5-6.3 42-24.2 48.3-47.8 11.4-42.9 11.4-132.3 11.4-132.3s0-89.4-11.4-132.3zM232.2 337.6l0-162.4 142.7 81.2-142.7 81.2z"
          transform="scale(0.04) translate(-256, -256)"
          fill="#d4ff00" />
        <title>YouTube</title>
      </g>
    </a>
    <!-- 8. Pinterest -->
    <a xlink:href="https://pinterest.com/" target="_blank">
      <g class="icon" opacity="0" transform="translate(888.0,462)">
        <animate attributeName="opacity" values="0;1" dur="0.4s" begin="4.9s" fill="freeze" />
        <animateTransform attributeName="transform" type="translate" additive="sum"
          values="0,0; 0,-3; 0,0" dur="4.3s" begin="4.9s" repeatCount="indefinite" />
        <circle class="icon-ring" cx="0" cy="0" r="20" fill="rgba(255,255,255,0.03)"
          stroke="rgba(255,255,255,0.08)" stroke-width="1" />
        <path
          d="M204 6.5c-102.6 0-204 68.4-204 179.1 0 70.4 39.6 110.4 63.6 110.4 9.9 0 15.6-27.6 15.6-35.4 0-9.3-23.7-29.1-23.7-67.8 0-80.4 61.2-137.4 140.4-137.4 68.1 0 118.5 38.7 118.5 109.8 0 53.1-21.3 152.7-90.3 152.7-24.9 0-46.2-18-46.2-43.8 0-37.8 26.4-74.4 26.4-113.4 0-66.2-93.9-54.2-93.9 25.8 0 16.8 2.1 35.4 9.6 50.7-13.8 59.4-42 147.9-42 209.1 0 18.9 2.7 37.5 4.5 56.4 3.4 3.8 1.7 3.4 6.9 1.5 50.4-69 48.6-82.5 71.4-172.8 12.3 23.4 44.1 36 69.3 36 106.2 0 153.9-103.5 153.9-196.8 0-99.3-85.8-164.1-180-164.1z"
          transform="scale(0.04) translate(-256, -256)"
          fill="#d4ff00" />
        <title>Pinterest</title>
      </g>
    </a>
    <!-- 9. Facebook -->
    <a xlink:href="https://facebook.com/" target="_blank">
      <g class="icon" opacity="0" transform="translate(940.0,462)">
        <animate attributeName="opacity" values="0;1" dur="0.4s" begin="5.0s" fill="freeze" />
        <animateTransform attributeName="transform" type="translate" additive="sum"
          values="0,0; 0,-3; 0,0" dur="4.5s" begin="5.0s" repeatCount="indefinite" />
        <circle class="icon-ring" cx="0" cy="0" r="20" fill="rgba(255,255,255,0.03)"
          stroke="rgba(255,255,255,0.08)" stroke-width="1" />
        <path
          d="M80 299.3l0 212.7 116 0 0-212.7 86.5 0 18-97.8-104.5 0 0-34.6c0-51.7 20.3-71.5 72.7-71.5 16.3 0 29.4 .4 37 1.2l0-88.7C291.4 4 256.4 0 236.2 0 129.3 0 80 50.5 80 159.4l0 42.1-66 0 0 97.8 66 0z"
          transform="scale(0.037) translate(-170, -256)"
          fill="#d4ff00" />
        <title>Facebook</title>
      </g>
    </a>
  </g>
</svg>